<svg width="684" height="133" xmlns="http://www.w3.org/2000/svg" xmlns:xlink="http://www.w3.org/1999/xlink" xml:space="preserve" overflow="hidden"><g transform="translate(-124 -305)"><g><g><g><g><path d="M468.723 80.2857C468.723 74.5872 468.723 68.8888 468.723 63.1903 468.788 63.0797 468.886 62.9757 468.918 62.8586 469.335 61.2063 470.493 60.7054 472.06 60.7314 474.129 60.7639 476.198 60.7184 478.266 60.7379 478.826 60.7379 479.053 60.5558 479.04 59.9768 479.014 58.5782 478.995 57.1796 479.047 55.7875 479.073 55.046 478.787 54.8703 478.104 54.8833 476.035 54.9224 473.966 54.9094 471.898 54.8898 470.421 54.8768 469.237 54.3174 468.971 52.9058 468.951 52.8017 468.808 52.7171 468.723 52.6196 468.723 46.9211 468.723 41.2227 468.723 35.5242 468.795 35.4201 468.906 35.3226 468.932 35.199 469.348 33.4881 470.577 33.0458 472.158 33.0718 474.149 33.0978 476.146 33.0458 478.136 33.0913 478.878 33.1108 479.086 32.8506 479.047 32.1481 478.982 30.9837 479.027 29.8128 479.333 28.6874 479.535 27.9393 479.242 27.8482 478.624 27.8547 476.783 27.8808 474.949 27.8873 473.108 27.8808 472.282 27.8808 471.449 27.9263 470.642 27.6921 469.673 27.4059 469.302 26.931 469.244 25.9227 469.224 25.5194 469.244 25.0966 468.977 24.6868 468.879 24.9014 468.801 25.0836 468.723 25.2657 468.723 19.6714 468.723 14.077 468.723 8.48262 468.821 8.30048 468.958 8.13135 469.01 7.93619 469.354 6.77179 470.109 6.17332 471.325 6.13429 476.425 5.96516 481.525 6.0172 486.625 6.12128 488.323 6.1538 489.143 7.045 489.286 8.76884 489.403 10.187 489.357 11.6181 489.325 13.0362 489.312 13.6151 489.488 13.8038 490.066 13.8038 493.846 13.7843 497.625 13.7778 501.411 13.8038 502.094 13.8038 502.322 13.5696 502.309 12.8996 502.283 11.475 502.309 10.0503 502.342 8.62573 502.374 7.2987 503.259 6.32944 504.56 6.16031 504.996 6.10176 505.438 6.06273 505.874 6.06273 509.497 6.04972 513.127 6.03021 516.75 6.05623 518.019 6.06273 519.287 5.97166 520.549 6.16681 521.896 6.37498 522.716 7.26617 522.755 8.64525 522.8 10.0959 522.833 11.5465 522.8 12.9971 522.787 13.6346 523.015 13.8038 523.607 13.8038 527.412 13.7908 531.218 13.7908 535.03 13.8103 535.628 13.8103 535.771 13.5891 535.771 13.0297 535.771 11.527 535.843 10.0308 535.882 8.52816 535.908 7.61745 536.357 6.95393 537.092 6.48556 537.703 6.09526 538.419 6.08225 539.115 6.07574 541.99 6.06273 544.865 6.05623 547.741 6.05623 549.555 6.05623 551.364 6.04972 553.179 6.08225 555.41 6.12128 556.314 7.06451 556.314 9.29576 556.314 13.9599 556.301 18.6175 556.321 23.2817 556.321 24.2444 556.184 25.1747 555.989 26.1114 555.794 27.0416 555.202 27.4514 554.395 27.7051 553.998 27.8287 553.589 27.8743 553.172 27.8743 548.742 27.8743 544.319 27.8808 539.889 27.8612 539.193 27.8612 538.575 27.9979 537.97 28.3426 535.888 29.5526 533.8 30.743 531.712 31.9399 529.331 33.2995 526.937 34.6395 524.589 36.0511 524.199 36.2853 523.119 36.0837 523.594 37.1635 523.607 37.196 523.425 37.3456 523.314 37.3977 522.943 37.5603 522.898 37.853 522.878 38.2173 522.729 41.1381 522.852 44.0654 522.755 46.9927 522.735 47.6042 522.93 48.066 523.34 48.5214 524.68 50.024 525.389 51.7934 525.389 53.823 525.389 60.0354 525.389 66.2542 525.389 72.4666 525.389 74.9255 524.732 77.2998 523.672 79.401 520.875 84.9368 516.113 87.5844 509.959 87.6689 504.807 87.7405 499.655 87.6949 494.496 87.6754 490.125 87.6624 486.359 86.1598 483.275 83.0308 482.917 82.673 482.553 82.5364 482.046 82.5429 478.754 82.5689 475.469 82.5689 472.178 82.5559 470.148 82.5494 469.628 82.1396 468.971 80.2141 468.886 79.9669 468.814 80.3052 468.71 80.2792ZM489.292 44.5403C489.292 39.9021 489.292 35.2705 489.292 30.6324 489.292 29.1037 488.206 27.9393 486.788 27.9263 485.298 27.9133 484.212 29.0517 484.212 30.6324 484.212 44.5663 484.212 58.5002 484.212 72.434 484.212 74.4246 484.765 76.2525 486.001 77.8528 486.144 78.0349 486.3 78.2301 486.248 78.4838 486.163 78.9066 486.424 79.1538 486.677 79.4205 488.733 81.6517 491.302 82.647 494.295 82.647 499.603 82.647 504.911 82.66 510.226 82.6275 511.702 82.621 513.192 82.4844 514.526 81.7753 516.184 80.8971 517.596 79.9214 518.494 78.0089 519.502 75.8557 520.374 73.7871 520.367 71.3997 520.361 66.4819 520.367 61.5575 520.367 56.6397 520.367 55.7355 520.387 54.8248 520.354 53.9206 520.296 52.3659 519.294 51.2145 517.973 51.1429 516.393 51.0518 515.339 51.9626 515.131 53.6604 514.896 55.5403 515.065 57.4333 515.039 59.3263 515.02 60.7899 513.999 61.8763 512.607 61.8958 511.247 61.9153 510.148 60.8095 510.122 59.3588 510.096 57.7781 510.109 56.1974 510.089 54.6166 510.076 53.3481 510.161 52.0796 509.966 50.8177 509.751 49.4516 508.658 48.4954 507.357 48.5279 506.01 48.5604 505.048 49.5036 504.866 50.9152 504.762 51.6893 504.762 52.4635 504.762 53.2376 504.762 55.2606 504.781 57.2772 504.742 59.3003 504.716 60.6664 503.675 61.7852 502.42 61.8958 501.177 61.9999 500.052 61.1152 499.824 59.7361 499.544 58.0968 499.766 56.4315 499.707 54.7793 499.629 52.3724 499.87 49.9655 499.557 47.5651 499.388 46.2511 498.348 45.3144 497.04 45.2949 495.758 45.2753 494.672 46.2316 494.529 47.5651 494.464 48.1831 494.477 48.8076 494.477 49.4256 494.477 52.7171 494.483 56.0022 494.47 59.2938 494.464 60.6924 493.508 61.7462 492.181 61.9023 490.997 62.0389 489.8 61.1672 489.501 59.9118 489.383 59.4109 489.292 58.91 489.292 58.3831 489.305 53.771 489.299 49.1654 489.299 44.5533ZM512.529 27.8678C512.529 27.8678 512.529 27.8873 512.529 27.8938 510.564 27.8938 508.593 27.9068 506.628 27.8938 505.802 27.8873 504.963 27.9783 504.163 27.7051 503.597 27.51 502.979 27.2758 502.816 26.6513 502.53 25.5324 502.224 24.4136 502.309 23.2231 502.387 22.2213 502.309 21.2066 502.329 20.1983 502.342 19.7039 502.159 19.4892 501.652 19.5022 500.852 19.5282 500.045 19.5022 499.245 19.5087 496.142 19.5152 493.039 19.5347 489.93 19.5282 489.481 19.5282 489.331 19.6909 489.331 20.1137 489.331 20.7577 489.383 21.4082 489.266 22.0522 489.201 22.4295 489.403 22.6962 489.748 22.8458 491.94 23.8281 493.332 25.4479 493.924 27.8027 494.197 28.8825 494.49 29.9364 494.483 31.0682 494.464 34.0216 494.483 36.9684 494.451 39.9217 494.451 40.5331 494.614 40.6047 495.173 40.4746 497.489 39.9152 499.629 40.351 501.587 41.7106 501.769 41.8407 501.964 42.0683 502.198 41.9643 502.459 41.8472 502.335 41.5544 502.335 41.3333 502.335 39.6224 502.329 37.9181 502.335 36.2073 502.335 35.8495 502.335 35.4787 502.42 35.1274 502.732 33.8524 503.773 33.1108 505.275 33.1043 509.809 33.0913 514.337 33.0978 518.871 33.1043 519.404 33.1043 519.899 33.0328 520.361 32.7726 523.841 30.7885 527.328 28.811 530.808 26.8204 530.964 26.7294 531.276 26.5537 531.075 26.3846 530.626 26.0073 531.062 25.9878 531.231 25.8902 532.558 25.1356 533.878 24.3745 535.218 23.6525 535.7 23.3923 535.895 23.0475 535.862 22.5336 535.823 21.8375 535.726 21.135 535.778 20.4455 535.83 19.6583 535.517 19.4957 534.795 19.5022 531.042 19.5413 527.289 19.5413 523.535 19.5282 522.982 19.5282 522.839 19.6974 522.846 20.2503 522.859 21.7725 522.898 23.3142 522.729 24.8234 522.611 25.8707 522.585 27.1002 521.271 27.5815 520.784 27.7637 520.289 27.8743 519.762 27.8743 517.355 27.8743 514.948 27.8743 512.542 27.8743ZM473.797 16.5749C473.797 18.1752 473.817 19.7819 473.784 21.3822 473.771 21.9676 473.992 22.1693 474.552 22.1368 477.473 21.9742 480.393 22.0717 483.314 22.0977 484.082 22.1043 484.29 21.8636 484.283 21.1415 484.251 18.0646 484.388 14.9942 484.199 11.9173 484.16 11.3123 484.023 11.1042 483.412 11.1042 480.439 11.1302 477.466 11.1302 474.493 11.1107 473.94 11.1107 473.784 11.3058 473.797 11.8392 473.83 13.4135 473.81 14.9942 473.81 16.5684ZM517.746 16.692C517.746 16.692 517.739 16.692 517.733 16.692 517.733 15.0853 517.713 13.485 517.746 11.8783 517.759 11.2993 517.544 11.1042 516.978 11.1042 513.973 11.1237 510.974 11.1172 507.969 11.1042 507.559 11.1042 507.357 11.2148 507.364 11.6766 507.376 14.9357 507.376 18.2012 507.364 21.4603 507.364 21.9481 507.572 22.0912 508.014 22.0912 511.071 22.0782 514.122 22.0652 517.18 22.0717 517.635 22.0717 517.759 21.9156 517.759 21.4928 517.746 19.886 517.759 18.2858 517.759 16.679ZM540.936 16.5684C540.936 16.5684 540.936 16.5684 540.936 16.5684 540.936 18.1752 540.956 19.7819 540.923 21.3887 540.91 21.9416 541.112 22.1043 541.639 22.1043 544.618 22.0847 547.597 22.0717 550.577 22.0912 551.156 22.0912 551.312 21.9416 551.325 21.3562 551.383 18.2467 551.409 15.1438 551.325 12.0409 551.305 11.3318 551.117 11.0912 550.395 11.1042 547.467 11.1367 544.54 11.1302 541.613 11.1107 541.06 11.1107 540.91 11.2863 540.923 11.8327 540.962 13.4135 540.936 14.9942 540.936 16.5749ZM517.804 42.0293C517.804 42.0293 517.759 42.0293 517.739 42.0293 517.739 41.2552 517.687 40.4746 517.752 39.7005 517.824 38.9069 517.492 38.7442 516.77 38.7573 513.843 38.8028 510.922 38.8028 507.995 38.7963 507.5 38.7963 507.364 38.9914 507.37 39.4403 507.383 40.2924 507.409 41.1511 507.35 42.0033 507.311 42.5952 507.572 42.7839 508.092 42.8359 510.362 43.0571 512.151 44.1239 513.53 45.9193 513.797 46.2641 514.044 46.3487 514.454 46.1405 515.313 45.6982 516.236 45.4575 517.199 45.3859 517.674 45.3534 517.817 45.1062 517.817 44.6769 517.811 43.7987 517.817 42.9205 517.817 42.0358ZM479.034 69.227C479.034 68.3749 479.008 67.5227 479.04 66.6705 479.066 66.0786 478.852 65.8184 478.247 65.8314 476.952 65.8509 475.664 65.8509 474.37 65.8444 473.934 65.8444 473.791 66.0265 473.797 66.4559 473.81 69.6889 473.81 72.9154 473.797 76.1484 473.797 76.6038 473.94 76.7924 474.422 76.7859 475.996 76.7664 477.577 76.7599 479.151 76.7859 479.671 76.7924 479.775 76.6168 479.658 76.1484 479.092 73.8782 479.001 71.5559 479.04 69.2335ZM473.797 44.3061C473.797 45.9389 473.817 47.5716 473.784 49.1979 473.778 49.6728 473.921 49.8549 474.396 49.8484 475.69 49.8289 476.985 49.8159 478.279 49.8419 478.858 49.8549 479.047 49.6337 479.04 49.0678 479.021 45.9063 479.014 42.7514 479.04 39.5899 479.04 38.9134 478.787 38.7573 478.162 38.7833 476.946 38.8288 475.729 38.8288 474.513 38.7833 473.966 38.7638 473.771 38.9329 473.784 39.4793 473.81 41.0861 473.791 42.6928 473.791 44.2996Z" fill="#19416A" fill-rule="nonzero" fill-opacity="1" transform="matrix(1.00661 0 0 1 124 306.048)"/><path d="M556.327 71.6729C556.327 74.34 556.327 77.0071 556.327 79.6742 556.327 81.2809 555.501 82.2372 553.914 82.4649 553.53 82.5169 553.14 82.5624 552.756 82.5624 548.3 82.5689 543.85 82.5689 539.395 82.5624 538.959 82.5624 538.516 82.5104 538.087 82.4389 536.734 82.2112 535.921 81.3005 535.914 79.9409 535.888 76.3696 535.895 72.7983 535.888 69.2205 535.888 67.4056 535.862 65.5972 535.875 63.7823 535.888 61.7462 536.838 60.7639 538.861 60.7509 543.753 60.7119 548.638 60.5623 553.53 60.7509 555.273 60.816 556.321 61.8503 556.327 63.5871 556.34 66.2802 556.327 68.9733 556.327 71.6664ZM540.936 71.2761C540.936 72.8764 540.949 74.4831 540.93 76.0834 540.93 76.5583 541.034 76.7859 541.574 76.7794 544.625 76.7599 547.675 76.7664 550.726 76.7794 551.162 76.7794 551.318 76.6428 551.325 76.207 551.331 75.2247 551.416 74.249 551.409 73.2667 551.396 71.068 551.325 68.8758 551.325 66.677 551.325 66.0265 551.097 65.8249 550.473 65.8249 547.5 65.8444 544.527 65.8379 541.554 65.8249 541.079 65.8249 540.93 65.9875 540.936 66.4624 540.962 68.0626 540.949 69.6694 540.943 71.2696Z" fill="#19416A" fill-rule="nonzero" fill-opacity="1" transform="matrix(1.00661 0 0 1 124 306.048)"/><path d="M535.862 44.0784C535.862 41.5154 535.862 38.9524 535.862 36.3894 535.862 34.0281 536.786 33.0913 539.147 33.0913 543.805 33.0848 548.469 33.1108 553.127 33.0848 555.124 33.0718 556.386 34.1972 556.353 36.3374 556.275 41.5154 556.327 46.6934 556.327 51.865 556.327 53.7775 555.293 54.8833 553.38 54.8898 548.515 54.9159 543.649 54.9094 538.783 54.8898 536.91 54.8833 535.908 53.8555 535.895 51.9951 535.882 49.354 535.895 46.713 535.895 44.0719 535.882 44.0719 535.875 44.0719 535.862 44.0719ZM540.943 44.3256C540.943 45.9063 540.988 47.4806 540.923 49.0613 540.897 49.7183 541.086 49.8614 541.691 49.8549 544.638 49.8354 547.591 49.8289 550.538 49.8549 551.162 49.8549 551.325 49.6468 551.331 49.0483 551.377 45.9454 551.442 42.8489 551.325 39.746 551.286 38.7638 551.312 38.7573 550.323 38.7638 547.428 38.7768 544.527 38.7963 541.632 38.7768 541.053 38.7768 540.936 38.9979 540.943 39.5053 540.962 41.1056 540.949 42.7123 540.949 44.3191Z" fill="#FFC000" fill-rule="nonzero" fill-opacity="1" transform="matrix(1.00661 0 0 1 124 306.048)"/><path d="M427.65 43.1026C427.715 42.4066 427.676 41.7366 427.52 41.0796 427.345 40.3575 426.935 39.8826 426.148 39.8241 425.308 39.759 424.762 40.0973 424.469 40.8974 424.281 41.4113 424.209 41.9382 424.209 42.4912 424.216 48.1636 424.209 53.836 424.209 59.5084 424.209 60.6533 423.871 60.9916 422.739 61.0046 422.017 61.0046 421.288 61.0111 420.566 61.0046 418.94 60.9786 419.038 61.3364 419.038 59.4694 419.038 52.0536 419.038 44.6378 419.038 37.2155 419.038 36.2463 418.25 35.4527 417.275 35.4527L417.275 35.4527C416.305 35.4527 415.512 36.2398 415.512 37.2155 415.512 44.82 415.512 52.4309 415.531 60.0354 415.531 60.894 415.297 61.1217 414.308 61.0046 413.32 60.8875 412.422 60.9396 411.479 61.0111 410.587 61.0827 410.347 60.842 410.431 59.8012 410.581 57.9472 410.555 56.0803 410.451 54.2263 410.308 51.7154 410.796 48.8401 408.812 46.7585 405.741 43.5385 400.927 44.4037 398.989 47.9034 397.87 49.9265 398.195 52.4569 398.059 54.5386 397.942 56.2819 397.903 58.0383 398.085 59.7817 398.254 61.3949 397.675 61.0957 395.17 60.7769 394.481 60.6924 393.791 60.8095 393.115 60.9721 392.282 61.1672 391.515 60.6078 391.391 59.8207 391.339 59.4824 391.332 59.1312 391.332 58.7799 391.332 41.7691 391.332 24.7583 391.332 7.74755 391.332 5.19105 391.411 5.126 393.928 5.126 400.817 5.126 407.706 5.13901 414.595 5.11299 415.349 5.11299 415.538 5.32115 415.531 6.06273 415.531 8.33951 415.525 10.6163 415.525 12.8931 415.525 13.8623 416.312 14.6494 417.281 14.6494 418.25 14.6494 419.038 13.8623 419.038 12.8931 419.038 11.0912 419.038 9.29576 419.038 7.49385 419.038 6.89538 419.038 6.30342 419.025 5.70495 419.012 5.27562 419.187 5.09998 419.623 5.11299 420.631 5.13901 421.646 5.09998 422.654 5.13901 423.806 5.19105 424.222 5.65291 424.222 6.77829 424.222 12.4767 424.222 40.1884 424.222 45.8868 424.222 46.3942 424.294 46.8886 424.476 47.357 424.775 48.1376 425.653 48.5669 426.453 48.3132 427.345 48.027 427.689 47.4415 427.689 46.16 427.689 40.4356 427.689 12.6979 427.689 6.97344 427.689 3.77945 425.699 1.80841 422.498 1.80841 412.63 1.80841 402.755 1.80841 392.887 1.80841 392.607 1.80841 392.146 1.84094 391.872 1.89948 389.426 2.44591 388.015 4.24782 388.015 6.88237 388.015 19.0534 388.021 31.2244 388.028 43.4019 388.028 43.8182 388.047 44.2345 387.807 44.6053 386.701 46.2966 385.296 47.7603 384.405 49.6402 383.604 51.3186 382.232 52.7171 381.237 54.3239 380.443 55.6054 379.786 56.952 379.454 58.4286 378.426 63.0082 379.682 67.2625 381.536 71.3477 383.136 74.8799 385.699 77.9503 386.493 81.8729 386.681 82.8096 386.955 83.7203 386.935 84.6896 386.909 86.1663 386.935 87.6429 386.928 89.1196 386.909 91.7281 388.08 94.4602 390.962 94.6619 391.241 94.6814 391.131 94.844 391.072 94.9806L408.168 94.9806C408.031 94.766 408.096 94.6879 408.343 94.6229 411.017 93.8813 412.311 91.8517 411.674 88.7358 411.114 86.0166 411.199 83.1739 412.324 80.6369 413.235 78.5878 413.45 76.5192 413.007 74.4636 412.357 71.4388 411.667 68.4204 410.997 65.3955 410.809 64.5499 410.88 64.4653 411.765 64.4653 415.265 64.4653 418.758 64.4783 422.258 64.4653 426.239 64.4458 428.073 61.6161 427.676 58.2595 427.084 53.2245 427.214 48.1506 427.676 43.1026ZM409.358 79.9344C408.747 82.595 408.35 85.2621 408.616 88.0007 408.701 88.8789 408.493 89.7441 408.382 90.6157 408.291 91.3508 407.894 91.5785 407.25 91.6175 405.982 91.6891 404.713 91.65 403.445 91.65 399.926 91.637 396.4 91.7346 392.881 91.6761 390.545 91.637 390.5 91.7997 390.376 89.2562 390.311 87.8641 390.37 86.459 390.376 85.0604 390.389 82.5624 389.739 80.2076 388.724 77.9568 387.56 75.3548 385.855 73.026 384.73 70.424 383.552 67.6983 382.245 64.9662 382.407 61.8438 382.525 59.5605 382.882 57.3878 384.261 55.4818 385.309 54.0377 386.33 52.574 387.364 51.1169 387.494 50.9348 387.631 50.655 387.891 50.7396 388.184 50.8372 388.034 51.1299 388.034 51.3446 387.982 54.4215 387.826 57.5049 388.132 60.5753 388.321 62.4487 389.992 63.997 392.048 64.3287 393.772 64.6019 395.509 64.4458 397.239 64.4523 397.929 64.4523 398.124 64.6345 398.098 65.3175 398.046 66.8982 398.085 68.4725 398.078 70.0532 398.078 70.3914 398.111 70.7167 398.202 71.0485 398.456 71.9332 399.08 72.4536 399.848 72.395 400.719 72.3234 401.357 71.686 401.383 70.7427 401.428 69.2661 401.428 67.7894 401.428 66.3193 401.435 64.5564 401.428 62.8 401.428 61.0371 401.422 61.0371 401.415 61.0371 401.409 61.0371 401.409 58.0318 401.415 55.033 401.409 52.0276 401.409 51.0453 401.487 50.1086 402.346 49.4451 402.469 49.3475 402.58 49.1979 402.541 49.0418 402.352 48.3067 402.84 48.2482 403.36 48.1571 403.978 48.0465 404.59 47.9945 405.201 48.1701 405.67 48.3067 406.229 48.3457 406.034 49.0938 406.008 49.1849 406.099 49.354 406.19 49.4256 407.153 50.1476 407.114 51.1885 407.133 52.2358 407.179 55.0785 406.88 57.9212 407.068 60.7704 407.231 63.2814 407.738 65.7208 408.22 68.1797 408.734 70.8143 409.547 73.3773 409.852 76.0574 410.002 77.4039 409.638 78.6854 409.345 79.9539Z" fill="#19416A" fill-rule="nonzero" fill-opacity="1" transform="matrix(1.00661 0 0 1 124 306.048)"/><path d="M417.275 16.5814 417.275 16.5814C416.305 16.5814 415.518 17.3751 415.518 18.3443 415.518 21.9026 415.518 21.6424 415.518 26.4627 415.518 26.7033 415.518 29.442 415.518 31.3219 415.518 32.2912 416.305 33.0783 417.275 33.0783 418.244 33.0783 419.031 32.2912 419.031 31.3154 419.031 26.8139 419.031 22.8523 419.031 18.3443 419.031 17.3751 418.244 16.5814 417.275 16.5814Z" fill="#FFC000" fill-rule="nonzero" fill-opacity="1" transform="matrix(1.00661 0 0 1 124 306.048)"/><path d="M4.37792 94.9806C4.54705 94.8961 4.71618 94.8115 4.9959 94.6684 3.27856 94.5968 1.97104 93.9333 1.0213 92.6063 0.429335 91.7801 0.0975762 90.8629 0.084566 89.8611 0.0585457 87.2981-0.0325254 84.7286 0.0975762 82.1721 0.351274 77.2218 2.51746 73.2146 6.4075 70.1377 6.68072 69.9231 7.03849 69.7865 6.79781 69.2921 6.69372 69.0774 7.02548 69.0059 7.18811 68.8953 9.66654 67.2235 12.4637 66.4884 15.3585 65.955 18.533 65.3695 21.6879 64.719 24.8429 64.049 26.6448 63.6652 27.2368 62.8065 27.4059 60.6924 27.536 59.0401 27.4059 57.4984 26.3781 56.0543 25.5454 54.8833 24.9925 53.5173 24.303 52.2423 23.7826 51.286 23.2426 50.3428 22.41 49.6077 22.3124 49.5232 22.1628 49.4061 22.1693 49.315 22.2734 48.4368 21.5188 48.079 21.083 47.5456 19.3851 45.477 18.0516 43.2523 17.5637 40.5657 17.2189 38.6662 17.2254 36.8122 17.941 35.0038 18.3443 33.989 18.3899 32.9677 18.3313 31.8879 18.1622 28.811 18.2858 25.7406 18.8712 22.6962 19.0143 21.9286 19.3396 21.2261 19.6258 20.504 22.3905 13.472 27.9523 9.95277 34.9843 8.333 38.6662 7.48084 42.244 8.05329 45.6461 9.59499 47.2464 10.3171 48.8922 10.7204 50.5835 11.0977 53.9466 11.8392 56.0477 14.103 56.5486 17.5052 57.3162 22.7157 58.2725 27.9068 57.9993 33.2149 57.9798 33.6313 58.0708 34.0411 58.253 34.4184 59.9378 38.0092 59.2547 41.4178 57.4073 44.7094 56.6462 46.069 55.6965 47.2984 54.5971 48.4043 54.5256 48.4758 54.415 48.5474 54.3955 48.6385 54.0182 50.3168 52.4569 51.2665 51.8455 52.8407 51.2405 54.402 50.3753 55.8656 49.4776 57.2837 49.1979 57.7261 49.0743 58.1554 49.1003 58.6693 49.1459 59.6516 49.0548 60.6273 49.2174 61.6096 49.4256 62.8456 50.0696 63.6652 51.2795 63.9449 53.0359 64.3482 54.8183 64.667 56.5812 65.0508 59.2808 65.6427 62.0129 66.0591 64.6865 66.7551 66.4364 67.2105 67.965 68.1342 69.5328 68.9798 69.6434 69.0384 69.806 69.1425 69.7474 69.2661 69.3962 69.9231 69.9946 70.0467 70.3199 70.3134 73.631 73.0325 75.7256 76.4282 76.3111 80.7345 76.7404 83.8895 76.5973 87.0379 76.4282 90.1864 76.3176 92.2225 74.6132 94.148 72.6357 94.6098 72.421 94.6619 72.0502 94.5383 72.1413 94.9936 49.5557 94.9936 26.9701 94.9936 4.37792 94.9936ZM26.3846 69.78C22.5076 70.5606 18.7021 71.3737 14.8706 72.0763 9.92675 72.987 6.79781 76.0248 5.71796 80.9101 5.17154 83.3756 5.34717 85.8475 5.28863 88.3259 5.28212 88.6317 5.34067 88.9439 5.71796 88.9374 7.12956 88.9179 8.52816 89.2822 9.90073 89.2952 20.0031 89.4058 30.1055 89.4383 40.2014 89.3342 50.2908 89.2301 60.3866 89.8026 70.463 88.9829 71.0354 88.9374 71.2436 88.7488 71.2371 88.2023 71.2176 86.6216 71.2956 85.0409 71.1916 83.4666 71.081 81.7948 70.9249 80.0905 70.2223 78.5553 68.7522 75.3418 66.1176 73.4293 62.813 72.4275 60.6403 71.764 58.3766 71.4648 56.1518 71.0029 54.0507 70.5671 51.9496 70.1508 49.7638 69.7084 50.0696 69.4417 50.551 69.7474 50.5444 69.3116 50.5444 68.9603 50.1216 69.0059 49.8614 68.9278 49.4451 68.8042 48.9962 68.8107 48.5929 68.6025 46.2121 67.3991 44.5988 65.5517 44.0654 62.9236 43.6491 60.8875 43.8182 58.7994 43.8052 56.7373 43.8052 56.1909 44.0524 55.6965 44.4102 55.2541 45.0997 54.4085 45.6852 53.4913 46.134 52.496 46.7195 51.1885 47.5651 50.0306 47.9164 48.5799 48.1896 47.448 49.1003 46.5373 49.946 45.6852 51.0388 44.5793 52.1187 43.4409 52.8212 42.0423 53.823 40.0583 54.2784 38.0092 53.205 35.8755 52.9513 35.3681 52.7887 34.8152 52.7692 34.2362 52.7106 32.714 52.6131 31.1853 52.6131 29.6566 52.6131 26.2805 51.7609 23.002 51.5397 19.6518 51.4877 18.8257 50.9022 18.1687 50.7851 17.4076 50.668 16.6465 50.3103 16.3928 49.6598 16.2822 47.4871 15.9114 45.425 15.2609 43.3889 14.3762 41.2487 13.446 38.9524 13.1142 36.565 13.4525 33.6443 13.8688 31.1203 15.1698 28.6679 16.679 28.4922 16.7896 28.3817 16.9457 28.4727 17.1279 28.6874 17.5442 28.3556 17.6483 28.128 17.8499 25.4869 20.1918 23.724 22.9694 23.7696 26.6513 23.7956 28.9801 23.7761 31.3154 23.7891 33.6443 23.7891 34.4054 23.737 35.1404 23.3597 35.8235 22.2278 37.8661 22.5726 39.8631 23.5484 41.8342 24.1273 43.0051 24.9795 43.9808 25.8577 44.9371 27.1067 46.3031 28.2581 47.6562 28.9216 49.5036 29.6632 51.5723 30.7495 53.5563 32.1871 55.2867 32.4408 55.5924 32.6034 55.9307 32.6555 56.334 32.8702 57.9342 32.7401 59.541 32.7401 61.1412 32.7401 64.9142 29.7933 68.505 26.4822 69.0189 26.2415 69.0579 25.9618 69.1034 25.8317 69.3701 25.9162 69.6173 26.235 69.4612 26.3846 69.767Z" fill="#19416A" fill-rule="nonzero" fill-opacity="1" transform="matrix(1.00661 0 0 1 124 306.048)"/><path d="M76.5778 48.5539C76.5778 51.0649 76.5322 53.5758 76.5973 56.0868 76.6298 57.2512 76.1289 58.24 75.7907 59.2678 75.589 59.8727 74.8149 60.0809 74.1514 60.1264 73.3513 60.1785 72.5511 60.185 71.7445 60.1785 68.8172 60.172 65.8964 60.1459 62.9692 60.1394 62.3186 60.1394 61.7527 59.9313 61.2453 59.541 60.6664 59.0856 60.1459 56.8349 60.4192 56.0022 60.7379 55.0395 61.7267 54.3044 62.8586 54.2849 65.2654 54.2458 67.6723 54.2458 70.0792 54.2263 71.2371 54.2133 71.2436 54.2068 71.2436 53.0749 71.2436 49.1654 71.2436 45.2558 71.2371 41.3528 71.2371 40.4486 71.2566 39.5444 71.4062 38.6467 71.6079 37.4172 72.5251 36.6106 73.8326 36.5846 75.1011 36.5585 76.0639 37.3456 76.3176 38.5556 76.5062 39.4728 76.5843 40.3965 76.5843 41.3268 76.5843 43.7336 76.5843 46.1405 76.5843 48.5474Z" fill="#19416A" fill-rule="nonzero" fill-opacity="1" transform="matrix(1.00661 0 0 1 124 306.048)"/><path d="M76.5778 12.8866C76.5778 16.2367 76.5843 18.9558 76.5778 21.6749 76.5713 23.2426 75.7776 24.3875 74.5287 24.6998 72.8308 25.1161 71.2761 23.9192 71.2696 22.1433 71.2436 17.7719 71.2436 13.394 71.2371 9.02254 71.2371 7.77357 71.2436 7.77357 69.9946 7.76706 67.7699 7.76706 65.5452 7.75405 63.3139 7.76706 62.813 7.76706 62.3382 7.689 61.8698 7.53288 61.4665 7.39627 61.1022 7.22064 61.1217 6.68072 61.1347 6.37498 60.894 6.17332 60.7444 5.93263 60.2045 5.10649 60.1655 4.20228 60.5753 3.35012 61.0306 2.40688 61.8373 1.82142 62.9171 1.81492 66.4884 1.7954 70.0597 1.7889 73.631 1.81492 75.3028 1.82793 76.3696 2.79068 76.4932 4.44947 76.7144 7.47433 76.5127 10.4992 76.5843 12.8931Z" fill="#FFC000" fill-rule="nonzero" fill-opacity="1" transform="matrix(1.00661 0 0 1 124 306.048)"/><path d="M0.0390305 48.7946C0.0390305 45.7047 0.0390305 43.1677 0.0390305 40.6307 0.0390305 39.8826 0.0715559 39.141 0.221173 38.393 0.43584 37.3587 1.47015 36.578 2.69961 36.5911 3.87052 36.5976 4.90483 37.3912 5.09998 38.406 5.30164 39.4533 5.28212 40.5136 5.28212 41.574 5.28212 45.4575 5.28212 49.341 5.28212 53.231 5.28212 54.2133 5.30814 54.2328 6.2774 54.2393 8.60622 54.2523 10.9415 54.3499 13.2704 54.2523 15.6057 54.1613 16.7376 56.399 15.8984 58.3505 15.2414 59.8662 14.3567 60.185 13.0557 60.185 9.58848 60.198 6.11477 60.1525 2.64757 60.1394 2.0556 60.1394 1.5352 59.9378 1.05382 59.606 0.761094 59.4044 0.663518 59.1246 0.552932 58.7864-0.565942 55.3127 0.429335 51.7479 0.0390305 48.7946Z" fill="#FFC000" fill-rule="nonzero" fill-opacity="1" transform="matrix(1.00661 0 0 1 124 306.048)"/><path d="M0.0585457 13.2378C0.0585457 10.3626 0.0520406 7.48734 0.0585457 4.6121 0.0585457 2.92078 1.19693 1.7954 2.88175 1.7954 6.32944 1.7954 9.77063 1.7889 13.2183 1.7954 14.8771 1.7954 15.9179 2.62155 16.2237 4.13723 16.2562 4.31287 16.2692 4.49501 16.2692 4.67715 16.2562 5.58136 15.5992 6.24487 15.352 7.08403 15.1894 7.64347 14.2591 7.75405 13.5631 7.75405 11.1302 7.75405 8.69078 7.78658 6.25788 7.75405 5.49679 7.74104 5.28212 8.02076 5.28212 8.74933 5.30164 13.2053 5.29513 17.6613 5.28212 22.1108 5.28212 23.5614 4.38442 24.5372 2.88825 24.7778 1.78239 24.9535 0.552932 24.1273 0.149617 22.9369 0.00650508 22.5076 0.0390305 22.0652 0.0390305 21.6294 0.0390305 18.8322 0.0390305 16.035 0.0390305 13.2378L0.0520406 13.2378Z" fill="#19416A" fill-rule="nonzero" fill-opacity="1" transform="matrix(1.00661 0 0 1 124 306.048)"/><path d="M203.368 84.0716C202.893 84.0456 202.984 84.4424 202.971 84.6766 202.913 85.9581 202.217 87.0184 201.853 88.1828 201.3 89.9522 200.057 90.941 198.639 91.8322 196.993 92.8665 195.165 93.2113 193.233 93.1917 189.48 93.1657 185.726 93.1917 181.973 93.1787 180.522 93.1787 179.638 92.5542 179.26 91.3183 178.681 89.4318 180.041 87.5453 181.999 87.5453 185.831 87.5388 189.662 87.5453 193.494 87.5453 196.317 87.5453 198.145 85.789 198.294 82.9658 198.509 78.9066 198.366 74.8409 198.385 70.7817 198.385 69.6434 198.541 68.6676 199.68 68.1212 199.803 68.0626 199.96 67.9846 199.921 67.7764 199.803 67.2235 199.81 67.217 200.337 67.1974 200.649 67.1844 200.955 67.1844 201.267 67.1974 201.605 67.1974 201.898 67.2625 201.84 67.7179 201.827 67.8089 201.846 67.9585 201.905 67.9976 202.575 68.4464 202.802 69.2466 203.355 69.78L203.355 84.0781Z" fill="#19416A" fill-rule="nonzero" fill-opacity="1" transform="matrix(1.00661 0 0 1 124 306.048)"/><path d="M138.096 0C138.194 0.312244 138.474 0.39681 138.721 0.526911 140.119 1.28801 140.354 3.18098 139.176 4.27384 138.916 4.52103 138.584 4.67065 138.786 5.15202 138.909 5.45125 138.61 5.51631 138.356 5.52932 137.504 5.58786 136.665 5.67893 135.807 5.6334 132.157 5.43824 128.508 5.65942 124.858 5.72447 122.64 5.7635 120.812 7.92969 120.799 10.3366 120.78 14.5063 120.799 18.6761 120.786 22.8458 120.78 24.8104 118.822 26.0333 117.15 25.1616 116.161 24.6412 115.784 23.737 115.79 22.7157 115.829 18.0581 115.621 13.394 115.927 8.73632 115.966 8.11183 116.22 7.53938 116.382 6.94092 117.104 4.27384 118.549 2.19221 121.138 1.03431 121.925 0.683033 122.712 0.3838 123.603 0.598467 123.772 0.637498 123.961 0.598467 124.143 0.585457 124.247 0.578952 124.364 0.552932 124.377 0.42283 124.397 0.253698 124.253 0.234183 124.13 0.195152 123.863 0.117091 123.551 0.227678 123.323-0.00650508L138.09-0.00650508Z" fill="#19416A" fill-rule="nonzero" fill-opacity="1" transform="matrix(1.00661 0 0 1 124 306.048)"/><path d="M203.368 23.4638C203.049 23.6004 202.971 23.9257 202.828 24.1924 202.327 25.1486 201.326 25.643 200.317 25.4153 199.277 25.1812 198.45 24.2639 198.431 23.2231 198.398 21.5643 198.418 19.912 198.405 18.2532 198.385 15.5862 198.444 12.9191 198.301 10.2585 198.164 7.76056 196.278 5.78952 193.78 5.71796 190.052 5.60738 186.325 5.52932 182.598 5.60738 182.181 5.61388 181.771 5.60738 181.355 5.58786 180.783 5.56184 180.106 5.67243 180.243 4.70968 180.275 4.47549 179.982 4.34539 179.826 4.17626 178.636 2.90777 179.117 0.975762 180.757 0.40982 180.978 0.338264 181.323 0.416325 181.297 0.00650508L196.219 0.00650508C195.887 0.279718 195.393 0.0715559 195.016 0.331759 195.243 0.552932 195.484 0.578952 195.712 0.565942 197.143 0.481376 198.275 1.1579 199.407 1.919 201.573 3.36963 202.386 5.57485 202.88 7.96872 202.965 8.35903 202.887 8.82089 203.362 9.02905L203.362 23.4833Z" fill="#19416A" fill-rule="nonzero" fill-opacity="1" transform="matrix(1.00661 0 0 1 124 306.048)"/><path d="M164.37 37.0009C164.429 36.6561 164.8 36.8187 164.845 36.3894 161.319 35.7259 157.807 35.6869 154.196 36.4024 154.463 36.9033 154.873 36.5911 155.127 36.9033 153.8 37.2286 152.505 37.5473 151.263 38.0157 146.95 39.6419 143.385 42.283 140.406 45.7957 139.54 46.8105 139.345 48.1311 138.5 49.1459 137.66 50.1541 137.186 51.4161 136.633 52.6196 135.254 55.6184 134.779 58.8254 134.72 62.0454 134.655 65.7793 134.701 69.5523 136.158 73.1171 136.659 74.3465 137.316 75.4914 138.07 76.5713 138.643 77.3844 138.805 78.2626 138.695 79.2253 138.493 81.0077 136.424 81.9965 134.948 80.9817 134.044 80.3572 133.484 79.4595 133.152 78.4252 133.029 78.0284 132.912 77.6381 132.71 77.2738 130.694 73.67 129.926 69.7605 129.731 65.6753 129.568 62.3512 129.731 59.0531 130.368 55.794 130.908 53.0099 132.242 50.5054 133.283 47.8969 134.577 44.6574 136.834 42.2505 139.176 39.8566 140.171 38.8418 141.284 37.9441 142.461 37.1375 142.585 37.0529 143.242 36.9684 142.617 36.5585 142.396 36.4089 142.721 36.2788 142.852 36.1877 146.514 33.7679 150.462 31.9985 154.814 31.2959 162.113 30.112 168.898 31.5561 175.143 35.5047 175.448 35.6999 175.761 35.882 176.06 36.0837 176.184 36.1682 176.398 36.3113 176.385 36.3764 176.177 37.1245 176.834 37.2676 177.218 37.5668 180.457 40.0518 183.378 42.9205 185.232 46.5438 186.884 49.7703 188.693 53.0229 189.265 56.7048 189.61 58.949 190.169 61.1803 190.078 63.4635 189.916 67.5487 189.363 71.5559 187.086 75.1076 186.475 76.0639 185.863 77.0331 184.9 77.7031 184.803 77.7682 184.666 77.9243 184.686 77.9959 184.933 78.809 184.237 79.0042 183.794 79.3229 178.961 82.8161 172.04 82.6145 167.467 78.8415 167.35 78.744 167.141 78.5813 167.167 78.5163 167.421 77.7487 166.725 77.5796 166.367 77.2088 163.947 74.6978 162.698 71.6664 162.536 68.2122 162.445 66.3778 162.451 64.5434 162.068 62.735 161.957 62.2276 161.781 61.7397 161.541 61.2843 160.526 59.3393 158.366 59.2222 157.15 61.0632 156.363 62.2471 156.115 63.5611 156.284 64.9857 156.395 65.9745 156.675 66.9633 156.402 67.9846 156.115 69.0449 155.276 69.7539 154.164 69.78 152.973 69.8125 152.05 69.2075 151.77 68.1017 150.833 64.3287 150.905 60.7184 153.552 57.5439 154.151 55.4168 156.005 54.8508 157.768 54.2784 160.227 53.4782 163.564 54.428 164.787 56.6657 165.879 58.6628 166.953 60.7574 167.272 63.1318 167.545 65.1679 167.428 67.2105 167.694 69.24 168.163 72.8113 171.767 76.0574 175.383 76.2005 179.124 76.3501 181.661 74.6393 183.391 71.4127 184.438 69.4547 184.77 67.3406 184.881 65.2069 185.193 58.9165 183.625 53.127 179.937 47.9619 178.655 44.7875 176.034 42.8359 173.399 40.943 170.862 39.115 168.065 37.788 164.949 37.209 164.754 37.17 164.565 37.0724 164.351 36.9944Z" fill="#FFC000" fill-rule="nonzero" fill-opacity="1" transform="matrix(1.00661 0 0 1 124 306.048)"/><path d="M173.608 65.6818C173.627 62.9431 173.172 60.3021 172.333 57.6805 170.693 52.548 167.102 49.5622 162.035 48.4108 155.133 46.8496 149.292 51.1039 147.151 56.4771 145.356 60.9786 144.92 65.7013 146.748 70.3914 147.776 73.0325 149.461 75.2637 151.276 77.3974 151.529 77.6966 151.816 77.9373 151.757 78.3992 151.724 78.6984 151.991 78.9001 152.18 79.1082 153.533 80.6434 154.905 82.1591 156.141 83.7919 156.759 84.6115 157.254 85.4767 156.831 86.5826 156.161 88.3259 153.91 88.8919 152.746 87.4413 150.43 84.553 147.594 82.029 145.707 78.8676 143.788 75.6606 141.57 72.4991 141.03 68.6156 140.575 65.3435 140.529 62.117 141.206 58.8384 142.097 54.5191 144.126 50.9283 147.288 47.9164 147.503 47.7147 148.251 47.6107 147.672 47.0187 147.659 47.0057 147.802 46.817 147.893 46.7455 151.685 43.7271 155.966 42.1464 160.838 42.4977 164.351 42.7514 167.532 44.0069 170.329 46.1535 170.752 46.4723 171.565 46.5698 171.318 47.4545 171.292 47.5326 171.558 47.6952 171.689 47.8188 174.212 50.1802 176.151 52.9448 177.205 56.2364 177.907 58.4416 178.441 60.7184 178.441 63.0667 178.441 64.5174 178.46 65.968 178.421 67.4186 178.382 68.6871 177.452 69.6564 176.262 69.767 174.98 69.884 173.79 69.149 173.614 68.0106 173.497 67.2495 173.594 66.4624 173.594 65.6818Z" fill="#19416A" fill-rule="nonzero" fill-opacity="1" transform="matrix(1.00661 0 0 1 124 306.048)"/><path d="M151.106 26.326C148.817 27.1197 146.598 28.0239 144.465 29.1362 140.991 30.9447 137.875 33.2279 135.084 35.9601 134.993 36.0511 134.863 36.1422 134.844 36.2528 134.603 37.8986 133.224 38.7833 132.294 39.9542 131.702 40.6958 130.726 40.7348 129.854 40.364 128.905 39.9607 128.326 39.2191 128.345 38.1328 128.371 37.0269 128.683 36.0381 129.386 35.1274 132.04 31.7123 135.28 28.9606 138.883 26.6123 139.079 26.4822 139.677 26.4822 139.209 25.9553 139.066 25.7926 139.3 25.7146 139.43 25.6365 144.094 22.8263 149.064 20.7772 154.437 19.7884 161.612 18.4679 168.397 19.9446 175.006 22.7027 176.919 23.5028 178.707 24.5437 180.503 25.5715 180.633 25.643 180.893 25.7406 180.809 25.8577 180.295 26.5928 181.082 26.6188 181.362 26.8009 184.803 29.0712 187.704 31.8619 189.922 35.3551 190.456 36.2008 190.69 37.092 190.716 38.0612 190.742 39.1215 190.176 39.9672 189.213 40.377 188.329 40.7543 187.21 40.5982 186.592 39.7981 185.792 38.7507 184.848 37.7685 184.53 36.4089 184.471 36.1552 184.25 35.921 184.061 35.7064 180.282 31.3285 175.435 28.6093 170.062 26.7033 169.757 26.5928 168.911 26.8399 169.314 25.9292 169.379 25.7731 169.021 25.6755 168.833 25.63 165.945 24.9144 163.024 24.3095 160.051 24.2444 157.436 24.1859 154.853 24.6607 152.323 25.3308 151.946 25.4283 151.568 25.5064 151.191 25.591 150.989 25.6365 150.755 25.6625 150.697 25.8967 150.625 26.1829 151.009 26.0984 151.1 26.326Z" fill="#19416A" fill-rule="nonzero" fill-opacity="1" transform="matrix(1.00661 0 0 1 124 306.048)"/><path d="M146.748 15.7358C142.852 17.2385 139.196 19.19 135.8 21.6229 135.195 22.0587 134.597 22.5401 133.816 22.6312 132.749 22.7613 131.728 22.1823 131.285 21.2196 130.856 20.2893 131.09 19.0924 131.91 18.3899 132.951 17.4922 134.102 16.7506 135.267 16.022 135.462 15.8984 135.956 15.8594 135.527 15.3975 135.325 15.1829 135.65 15.1243 135.78 15.0397 140.562 12.1385 145.61 9.88121 151.087 8.65826 155.107 7.76056 159.166 7.53938 163.264 7.92318 170.199 8.56719 176.515 10.9741 182.441 14.5258 182.682 14.6689 182.942 14.7925 183.183 14.9487 183.378 15.0723 183.925 15.0332 183.404 15.5211 183.144 15.7618 183.573 15.8594 183.729 15.97 184.712 16.64 185.713 17.284 186.696 17.954 186.975 18.1427 187.236 18.3573 187.476 18.5915 188.504 19.5673 188.654 20.7967 187.847 21.8506 187.203 22.6897 186 23.4248 184.569 22.475 182.994 21.4342 181.485 20.2893 179.852 19.3396 177.68 18.0776 175.494 16.8612 173.113 16.035 172.905 15.9635 172.378 15.9504 172.859 15.4626 173.042 15.2739 172.71 15.1113 172.534 15.0593 170.316 14.3762 168.117 13.6086 165.801 13.3159 164.039 13.0947 162.276 12.854 160.487 12.7955 157.176 12.6784 153.936 13.0297 150.742 13.8623 149.422 14.2071 148.114 14.6169 146.8 14.9942 146.598 15.0527 146.371 15.0723 146.345 15.3325 146.312 15.6252 146.696 15.4886 146.761 15.7228Z" fill="#19416A" fill-rule="nonzero" fill-opacity="1" transform="matrix(1.00661 0 0 1 124 306.048)"/><path d="M131.058 87.5453C132.977 87.5453 134.889 87.5453 136.808 87.5453 137.225 87.5453 137.641 87.5714 138.038 87.6884 138.773 87.9096 139.462 88.1503 139.501 89.1326 139.514 89.5229 139.827 89.9002 139.892 90.297 140.139 91.7606 139 93.1592 137.452 93.1722 133.309 93.2113 129.165 93.2438 125.021 93.1592 122.133 93.1007 119.537 91.9948 117.95 89.5749 116.74 87.7275 115.771 85.6068 115.771 83.252 115.771 79.1603 115.771 75.0686 115.777 70.9769 115.777 69.7605 116.018 68.6546 117.254 68.0431 117.358 67.9911 117.534 67.952 117.397 67.7048 117.143 67.269 117.176 67.2235 117.67 67.1909 118.08 67.1649 118.496 67.1649 118.913 67.1909 119.251 67.2105 119.804 67.0999 119.297 67.7634 119.114 67.9976 119.453 68.1732 119.635 68.2773 120.552 68.8237 120.793 69.6759 120.786 70.6581 120.786 74.7498 120.773 78.8415 120.793 82.9332 120.806 85.1905 122.224 87.0184 124.306 87.4543 124.858 87.5714 125.437 87.5388 126.003 87.5453 126.856 87.5583 127.714 87.5453 128.566 87.5388 129.393 87.5388 130.225 87.5388 131.051 87.5388Z" fill="#19416A" fill-rule="nonzero" fill-opacity="1" transform="matrix(1.00661 0 0 1 124 306.048)"/><text fill="#00426B" fill-opacity="1" font-family="Montserrat,Montserrat_MSFontService,sans-serif" font-style="normal" font-variant="normal" font-weight="400" font-stretch="normal" font-size="30" text-anchor="start" direction="ltr" writing-mode="lr-tb" unicode-bidi="normal" text-decoration="none" transform="matrix(0.654809 0 0 0.650508 138.085 433)">F</text><text fill="#00426B" fill-opacity="1" font-family="Montserrat,Montserrat_MSFontService,sans-serif" font-style="normal" font-variant="normal" font-weight="400" font-stretch="normal" font-size="30" text-anchor="start" direction="ltr" writing-mode="lr-tb" unicode-bidi="normal" text-decoration="none" transform="matrix(0.654809 0 0 0.650508 150.755 433)">a</text><text fill="#00426B" fill-opacity="1" font-family="Montserrat,Montserrat_MSFontService,sans-serif" font-style="normal" font-variant="normal" font-weight="400" font-stretch="normal" font-size="30" text-anchor="start" direction="ltr" writing-mode="lr-tb" unicode-bidi="normal" text-decoration="none" transform="matrix(0.654809 0 0 0.650508 162.437 433)">c</text><text fill="#00426B" fill-opacity="1" font-family="Montserrat,Montserrat_MSFontService,sans-serif" font-style="normal" font-variant="normal" font-weight="400" font-stretch="normal" font-size="30" text-anchor="start" direction="ltr" writing-mode="lr-tb" unicode-bidi="normal" text-decoration="none" transform="matrix(0.654809 0 0 0.650508 173.877 433)">e</text><text fill="#00426B" fill-opacity="1" font-family="Montserrat,Montserrat_MSFontService,sans-serif" font-style="normal" font-variant="normal" font-weight="400" font-stretch="normal" font-size="30" text-anchor="start" direction="ltr" writing-mode="lr-tb" unicode-bidi="normal" text-decoration="none" transform="matrix(0.654809 0 0 0.650508 230.924 433)">Fi</text><text fill="#00426B" fill-opacity="1" font-family="Montserrat,Montserrat_MSFontService,sans-serif" font-style="normal" font-variant="normal" font-weight="400" font-stretch="normal" font-size="30" text-anchor="start" direction="ltr" writing-mode="lr-tb" unicode-bidi="normal" text-decoration="none" transform="matrix(0.654809 0 0 0.650508 249.213 433)">n</text><text fill="#00426B" fill-opacity="1" font-family="Montserrat,Montserrat_MSFontService,sans-serif" font-style="normal" font-variant="normal" font-weight="400" font-stretch="normal" font-size="30" text-anchor="start" direction="ltr" writing-mode="lr-tb" unicode-bidi="normal" text-decoration="none" transform="matrix(0.654809 0 0 0.650508 262.754 433)">g</text><text fill="#00426B" fill-opacity="1" font-family="Montserrat,Montserrat_MSFontService,sans-serif" font-style="normal" font-variant="normal" font-weight="400" font-stretch="normal" font-size="30" text-anchor="start" direction="ltr" writing-mode="lr-tb" unicode-bidi="normal" text-decoration="none" transform="matrix(0.654809 0 0 0.650508 276.413 433)">e</text><text fill="#00426B" fill-opacity="1" font-family="Montserrat,Montserrat_MSFontService,sans-serif" font-style="normal" font-variant="normal" font-weight="400" font-stretch="normal" font-size="30" text-anchor="start" direction="ltr" writing-mode="lr-tb" unicode-bidi="normal" text-decoration="none" transform="matrix(0.654809 0 0 0.650508 288.593 433)">r</text><text fill="#00426B" fill-opacity="1" font-family="Montserrat,Montserrat_MSFontService,sans-serif" font-style="normal" font-variant="normal" font-weight="400" font-stretch="normal" font-size="30" text-anchor="start" direction="ltr" writing-mode="lr-tb" unicode-bidi="normal" text-decoration="none" transform="matrix(0.654809 0 0 0.650508 296.097 433)">p</text><text fill="#00426B" fill-opacity="1" font-family="Montserrat,Montserrat_MSFontService,sans-serif" font-style="normal" font-variant="normal" font-weight="400" font-stretch="normal" font-size="30" text-anchor="start" direction="ltr" writing-mode="lr-tb" unicode-bidi="normal" text-decoration="none" transform="matrix(0.654809 0 0 0.650508 309.691 433)">r</text><text fill="#00426B" fill-opacity="1" font-family="Montserrat,Montserrat_MSFontService,sans-serif" font-style="normal" font-variant="normal" font-weight="400" font-stretch="normal" font-size="30" text-anchor="start" direction="ltr" writing-mode="lr-tb" unicode-bidi="normal" text-decoration="none" transform="matrix(0.654809 0 0 0.650508 317.653 433)">i</text><text fill="#00426B" fill-opacity="1" font-family="Montserrat,Montserrat_MSFontService,sans-serif" font-style="normal" font-variant="normal" font-weight="400" font-stretch="normal" font-size="30" text-anchor="start" direction="ltr" writing-mode="lr-tb" unicode-bidi="normal" text-decoration="none" transform="matrix(0.654809 0 0 0.650508 323.271 433)">n</text><text fill="#00426B" fill-opacity="1" font-family="Montserrat,Montserrat_MSFontService,sans-serif" font-style="normal" font-variant="normal" font-weight="400" font-stretch="normal" font-size="30" text-anchor="start" direction="ltr" writing-mode="lr-tb" unicode-bidi="normal" text-decoration="none" transform="matrix(0.654809 0 0 0.650508 336.813 433)">t</text><text fill="#00426B" fill-opacity="1" font-family="Montserrat,Montserrat_MSFontService,sans-serif" font-style="normal" font-variant="normal" font-weight="400" font-stretch="normal" font-size="30" text-anchor="start" direction="ltr" writing-mode="lr-tb" unicode-bidi="normal" text-decoration="none" transform="matrix(0.654809 0 0 0.650508 365.389 433)">P</text><text fill="#00426B" fill-opacity="1" font-family="Montserrat,Montserrat_MSFontService,sans-serif" font-style="normal" font-variant="normal" font-weight="400" font-stretch="normal" font-size="30" text-anchor="start" direction="ltr" writing-mode="lr-tb" unicode-bidi="normal" text-decoration="none" transform="matrix(0.654809 0 0 0.650508 379.506 433)">a</text><text fill="#00426B" fill-opacity="1" font-family="Montserrat,Montserrat_MSFontService,sans-serif" font-style="normal" font-variant="normal" font-weight="400" font-stretch="normal" font-size="30" text-anchor="start" direction="ltr" writing-mode="lr-tb" unicode-bidi="normal" text-decoration="none" transform="matrix(0.654809 0 0 0.650508 391.182 433)">l</text><text fill="#00426B" fill-opacity="1" font-family="Montserrat,Montserrat_MSFontService,sans-serif" font-style="normal" font-variant="normal" font-weight="400" font-stretch="normal" font-size="30" text-anchor="start" direction="ltr" writing-mode="lr-tb" unicode-bidi="normal" text-decoration="none" transform="matrix(0.654809 0 0 0.650508 396.61 433)">m</text><text fill="#00426B" fill-opacity="1" font-family="Montserrat,Montserrat_MSFontService,sans-serif" font-style="normal" font-variant="normal" font-weight="400" font-stretch="normal" font-size="30" text-anchor="start" direction="ltr" writing-mode="lr-tb" unicode-bidi="normal" text-decoration="none" transform="matrix(0.654809 0 0 0.650508 421.611 433)">V</text><text fill="#00426B" fill-opacity="1" font-family="Montserrat,Montserrat_MSFontService,sans-serif" font-style="normal" font-variant="normal" font-weight="400" font-stretch="normal" font-size="30" text-anchor="start" direction="ltr" writing-mode="lr-tb" unicode-bidi="normal" text-decoration="none" transform="matrix(0.654809 0 0 0.650508 435.584 433)">e</text><text fill="#00426B" fill-opacity="1" font-family="Montserrat,Montserrat_MSFontService,sans-serif" font-style="normal" font-variant="normal" font-weight="400" font-stretch="normal" font-size="30" text-anchor="start" direction="ltr" writing-mode="lr-tb" unicode-bidi="normal" text-decoration="none" transform="matrix(0.654809 0 0 0.650508 447.744 433)">i</text><text fill="#00426B" fill-opacity="1" font-family="Montserrat,Montserrat_MSFontService,sans-serif" font-style="normal" font-variant="normal" font-weight="400" font-stretch="normal" font-size="30" text-anchor="start" direction="ltr" writing-mode="lr-tb" unicode-bidi="normal" text-decoration="none" transform="matrix(0.654809 0 0 0.650508 453.362 433)">n</text><text fill="#00426B" fill-opacity="1" font-family="Montserrat,Montserrat_MSFontService,sans-serif" font-style="normal" font-variant="normal" font-weight="400" font-stretch="normal" font-size="30" text-anchor="start" direction="ltr" writing-mode="lr-tb" unicode-bidi="normal" text-decoration="none" transform="matrix(0.654809 0 0 0.650508 493.148 433)">ID C</text><text fill="#00426B" fill-opacity="1" font-family="Montserrat,Montserrat_MSFontService,sans-serif" font-style="normal" font-variant="normal" font-weight="400" font-stretch="normal" font-size="30" text-anchor="start" direction="ltr" writing-mode="lr-tb" unicode-bidi="normal" text-decoration="none" transform="matrix(0.654809 0 0 0.650508 535.593 433)">a</text><text fill="#00426B" fill-opacity="1" font-family="Montserrat,Montserrat_MSFontService,sans-serif" font-style="normal" font-variant="normal" font-weight="400" font-stretch="normal" font-size="30" text-anchor="start" direction="ltr" writing-mode="lr-tb" unicode-bidi="normal" text-decoration="none" transform="matrix(0.654809 0 0 0.650508 547.275 433)">r</text><text fill="#00426B" fill-opacity="1" font-family="Montserrat,Montserrat_MSFontService,sans-serif" font-style="normal" font-variant="normal" font-weight="400" font-stretch="normal" font-size="30" text-anchor="start" direction="ltr" writing-mode="lr-tb" unicode-bidi="normal" text-decoration="none" transform="matrix(0.654809 0 0 0.650508 555.25 433)">d</text><text fill="#00426B" fill-opacity="1" font-family="Montserrat,Montserrat_MSFontService,sans-serif" font-style="normal" font-variant="normal" font-weight="400" font-stretch="normal" font-size="30" text-anchor="start" direction="ltr" writing-mode="lr-tb" unicode-bidi="normal" text-decoration="none" transform="matrix(0.654809 0 0 0.650508 594.873 433)">P</text><text fill="#00426B" fill-opacity="1" font-family="Montserrat,Montserrat_MSFontService,sans-serif" font-style="normal" font-variant="normal" font-weight="400" font-stretch="normal" font-size="30" text-anchor="start" direction="ltr" writing-mode="lr-tb" unicode-bidi="normal" text-decoration="none" transform="matrix(0.654809 0 0 0.650508 608.991 433)">a</text><text fill="#00426B" fill-opacity="1" font-family="Montserrat,Montserrat_MSFontService,sans-serif" font-style="normal" font-variant="normal" font-weight="400" font-stretch="normal" font-size="30" text-anchor="start" direction="ltr" writing-mode="lr-tb" unicode-bidi="normal" text-decoration="none" transform="matrix(0.654809 0 0 0.650508 620.666 433)">s</text><text fill="#00426B" fill-opacity="1" font-family="Montserrat,Montserrat_MSFontService,sans-serif" font-style="normal" font-variant="normal" font-weight="400" font-stretch="normal" font-size="30" text-anchor="start" direction="ltr" writing-mode="lr-tb" unicode-bidi="normal" text-decoration="none" transform="matrix(0.654809 0 0 0.650508 630.606 433)">s</text><text fill="#00426B" fill-opacity="1" font-family="Montserrat,Montserrat_MSFontService,sans-serif" font-style="normal" font-variant="normal" font-weight="400" font-stretch="normal" font-size="30" text-anchor="start" direction="ltr" writing-mode="lr-tb" unicode-bidi="normal" text-decoration="none" transform="matrix(0.654809 0 0 0.650508 640.565 433)">c</text><text fill="#00426B" fill-opacity="1" font-family="Montserrat,Montserrat_MSFontService,sans-serif" font-style="normal" font-variant="normal" font-weight="400" font-stretch="normal" font-size="30" text-anchor="start" direction="ltr" writing-mode="lr-tb" unicode-bidi="normal" text-decoration="none" transform="matrix(0.654809 0 0 0.650508 652.005 433)">o</text><text fill="#00426B" fill-opacity="1" font-family="Montserrat,Montserrat_MSFontService,sans-serif" font-style="normal" font-variant="normal" font-weight="400" font-stretch="normal" font-size="30" text-anchor="start" direction="ltr" writing-mode="lr-tb" unicode-bidi="normal" text-decoration="none" transform="matrix(0.654809 0 0 0.650508 664.499 433)">d</text><text fill="#00426B" fill-opacity="1" font-family="Montserrat,Montserrat_MSFontService,sans-serif" font-style="normal" font-variant="normal" font-weight="400" font-stretch="normal" font-size="30" text-anchor="start" direction="ltr" writing-mode="lr-tb" unicode-bidi="normal" text-decoration="none" transform="matrix(0.654809 0 0 0.650508 678.04 433)">e</text><path d="M272.524 57.9212C272.712 57.3878 272.55 56.965 272.55 56.5356 272.53 47.9359 272.511 39.3427 272.498 30.743 272.498 29.7282 272.537 28.7134 272.589 27.7051 272.706 25.4349 273.734 23.659 275.601 22.384 276.303 21.9091 277.084 21.6359 277.962 21.6619 279.055 21.6879 280.141 21.6619 281.234 21.7074 281.715 21.727 281.878 21.5448 281.898 21.109 282.008 18.3703 285.378 15.6772 288.064 15.7163 290.198 15.7488 292.117 16.2692 293.568 17.941 294.225 18.6956 294.739 19.5282 294.765 20.5821 294.784 21.2456 295.135 21.2651 295.695 21.1025 298.538 20.2958 300.99 20.9073 302.967 23.1841 304.268 24.6803 304.529 26.4887 304.522 28.3686 304.516 29.8713 304.327 29.6762 305.849 29.6697 306.584 29.6697 307.319 29.6566 308.054 29.6371 310.038 29.5851 311.483 30.5088 312.589 32.083 313.382 33.2214 313.727 34.4314 313.714 35.8495 313.649 41.9122 313.675 47.9749 313.662 54.0377 313.662 54.5321 313.837 54.7012 314.332 54.6947 315.678 54.6687 317.031 54.5841 318.365 54.7077 319.939 54.8508 321.552 54.8963 323.081 55.1956 326.366 55.8331 329.612 56.7178 332.637 58.2009 334.042 58.8905 335.369 59.7426 336.722 60.5297 337.737 61.1217 338.16 62.0519 338.147 63.2033 338.147 63.5611 338.179 63.9189 338.147 64.2702 337.906 67.1909 338.635 70.0662 338.596 72.974 338.544 76.6363 337.971 80.1946 336.651 83.6488 335.038 87.8446 332.559 91.4679 329.404 94.5903 326.789 97.1794 323.79 99.3065 320.44 100.926 317.89 102.156 315.366 102.11 312.888 100.991 310.065 99.7163 307.443 98.064 305.238 95.8328 304.86 95.4555 304.444 95.3124 303.943 95.3254 296.41 95.4425 288.877 95.3514 281.345 95.3709 279.998 95.3709 278.658 95.3905 277.311 95.3905 277.012 95.3905 276.706 95.3319 276.407 95.3059 275.731 95.2408 275.464 94.9026 275.477 94.2 275.516 92.3266 275.484 90.4466 275.503 88.5666 275.503 88.0787 275.484 87.5974 275.353 87.1355 275.08 86.1858 274.683 85.3922 273.519 85.1775 270.071 84.54 267.19 82.8226 265.114 80.0125 263.534 77.8723 262.428 75.4719 261.94 72.7788 261.634 71.0745 260.971 69.4352 260.424 67.7764 260.053 66.651 259.806 65.4801 259.462 64.3612 258.85 62.3902 258.525 60.3151 257.595 58.4416 256.846 56.9259 256.833 55.2997 257.022 53.6799 257.25 51.7479 259.462 49.0613 262.096 48.7556 264.249 48.5084 266.305 48.723 268.042 50.1932 268.608 50.6746 269.089 51.234 269.395 51.9105 270.058 53.3611 270.839 54.7532 271.366 56.2689 271.58 56.8804 271.945 57.4333 272.537 57.9212ZM300.404 91.2272 300.509 91.0386C299.871 90.5962 299.383 90.0433 298.993 89.3798 298.271 88.1568 297.679 86.8818 297.074 85.6068 296.592 84.605 296.157 83.5772 295.812 82.5429 295.623 81.9705 295.292 81.3655 295.318 80.7801 295.337 80.2466 295.285 79.7783 295.057 79.3229 294.791 78.783 294.687 78.217 294.7 77.6316 294.817 72.343 294.342 67.0348 295.148 61.7657 295.2 61.4209 295.344 61.1803 295.552 60.907 296.306 59.8988 297.627 59.8012 298.518 59.0141 298.941 58.6368 299.422 58.2855 299.988 58.0903 301.53 57.5569 302.961 56.7568 304.561 56.347 305.16 56.1909 305.849 56.0868 306.357 55.8136 307.04 55.4363 307.736 55.3517 308.445 55.2216 309.551 55.0264 309.551 55.0395 309.544 53.8881 309.525 51.1494 309.492 48.4108 309.479 45.6721 309.466 42.8034 309.46 39.9412 309.479 37.0724 309.479 36.2788 309.31 35.5503 308.848 34.9193 308.367 34.2687 307.651 33.7939 306.877 33.8394 305.973 33.8915 304.939 35.3486 304.939 36.2658 304.939 41.1902 304.952 46.108 304.958 51.0323 304.958 52.6326 304.36 53.2441 302.785 53.2376 300.548 53.2376 300.177 52.8733 300.177 50.6485 300.177 43.1417 300.164 35.6283 300.183 28.1215 300.183 27.3604 299.988 26.6903 299.487 26.1699 298.941 25.591 298.355 24.9144 297.432 25.1096 296.579 25.2917 295.357 27.0481 295.357 27.9588 295.363 33.2605 295.383 38.5621 295.383 43.8637 295.383 46.4267 295.363 48.9897 295.35 51.5527 295.35 52.1577 295.233 52.8668 294.66 53.0424 293.672 53.3481 292.566 53.4587 291.603 53.0034 290.888 52.6651 291.102 51.7479 290.927 51.0844 290.888 50.9413 290.888 50.7851 290.888 50.629 290.933 47.409 290.777 44.1955 290.712 40.9755 290.627 36.7147 290.679 32.4538 290.673 28.193 290.673 26.3911 290.686 24.5892 290.679 22.7873 290.679 21.4082 289.508 20.1267 288.344 20.1853 287.336 20.2373 286.08 21.5448 286.067 22.6962 286.048 24.8169 285.963 26.9375 286.002 29.0712 286.126 36.4284 286.08 43.7857 286.074 51.1429 286.074 53.0944 285.872 53.2441 283.914 53.2441 281.774 53.2441 281.696 53.1205 281.592 50.9868 281.39 46.804 281.455 42.6213 281.462 38.432 281.462 35.3876 281.364 32.3432 281.54 29.3054 281.624 27.8547 281.201 26.6578 279.64 26.1699 279.361 26.0854 279.126 25.8056 278.795 25.9813 277.936 26.4496 277.116 26.9766 276.96 28.0499 276.843 28.876 276.765 29.7087 276.772 30.5478 276.791 33.95 276.778 37.3456 276.778 40.7478 276.778 47.2139 276.791 53.6864 276.772 60.1525 276.772 61.5185 276.57 62.8325 275.236 63.6652 274.482 64.1401 273.669 64.1271 272.842 64.2246 270.917 64.4588 269.831 63.5286 269.004 61.9218 268.217 60.3866 267.684 58.7474 266.89 57.2187 266.305 56.0998 265.869 54.8963 265.108 53.8751 264.562 53.14 263.495 52.8798 262.792 53.2376 261.849 53.7189 261.263 54.7663 261.491 55.6574 261.868 57.1536 262.343 58.6238 262.805 60.0874 263.989 63.8538 264.945 67.6853 266.162 71.4388 266.585 72.7333 266.877 74.0798 267.378 75.3418 267.996 76.89 269.226 77.9568 270.54 78.9391 271.841 79.9084 273.259 80.5524 274.827 80.9557 275.867 81.2224 277.025 81.4175 277.676 82.4063 278.04 82.9593 278.443 83.4732 278.873 83.9675 279.296 84.4489 279.465 85.0083 279.543 85.6263 279.738 87.142 279.666 88.6642 279.673 90.1864 279.673 90.8889 280.022 91.2402 280.72 91.2402 286.581 91.2402 292.442 91.2402 298.303 91.2402 299.006 91.2402 299.715 91.2402 300.417 91.2402ZM316.752 59.1442C313.798 59.0076 309.108 60.0158 307.131 60.6598 304.776 61.4209 302.525 62.4878 300.372 63.7433 299.891 64.023 299.63 64.4133 299.617 64.9727 299.539 68.4074 299.188 71.8356 299.422 75.2898 299.611 78.0609 300.229 80.6825 301.452 83.1609 304.561 89.4448 309.225 94.1415 315.639 97.0688 316.466 97.4461 317.194 97.3615 317.955 96.9712 322.112 94.844 325.703 92.0403 328.558 88.3064 330.673 85.5418 332.338 82.5755 333.301 79.2123 334.153 76.233 334.211 73.2146 333.906 70.1703 333.73 68.4529 333.906 66.7226 333.645 65.0117 333.541 64.3352 333.34 63.8213 332.663 63.5221 331.857 63.1643 331.082 62.7285 330.282 62.3382 326.008 60.25 321.468 59.3003 316.745 59.1507Z" fill="#19416A" fill-rule="nonzero" fill-opacity="1" transform="matrix(1.00661 0 0 1 124 306.048)"/><path d="M240.044 17.6157C240.044 14.8511 240.044 12.0864 240.044 9.32828 240.044 7.59793 240.512 7.06451 242.223 7.03199 247.317 6.94742 252.41 6.94092 257.51 7.045 258.089 7.05801 258.85 7.03849 259.052 7.62395 259.351 8.49563 259.514 9.4844 259.006 10.3496 258.72 10.8375 258.147 10.9025 257.588 10.9025 253.457 10.896 249.327 10.9155 245.189 10.8895 244.467 10.8895 244.279 11.0521 244.285 11.8262 244.324 16.7441 244.285 21.6554 244.253 26.5732 244.246 27.588 243.511 28.3166 242.496 28.4077 241.319 28.5118 240.382 27.9393 240.148 26.9505 240.076 26.6318 240.05 26.3 240.05 25.9748 240.044 23.1841 240.05 20.3999 240.05 17.6092L240.05 17.6092Z" fill="#19416A" fill-rule="nonzero" fill-opacity="1" transform="matrix(1.00661 0 0 1 124 306.048)"/><path d="M240.213 84.7286C240.213 81.8404 240.213 78.9456 240.213 76.0574 240.213 74.893 240.877 74.0603 241.813 74.0343 243.342 74.0018 244.038 74.5547 244.051 75.9533 244.09 80.7996 244.097 85.6393 244.116 90.4856 244.116 91.4419 244.181 91.4939 245.17 91.4874 249.177 91.4744 253.184 91.4614 257.191 91.4679 258.974 91.4679 259.175 91.6761 259.253 93.4585 259.266 93.7121 259.26 93.9658 259.253 94.2195 259.221 94.87 258.935 95.2018 258.232 95.2734 257.016 95.397 255.799 95.3644 254.583 95.3709 250.498 95.3774 246.419 95.3709 242.334 95.3709 240.733 95.3709 240.219 94.9156 240.206 93.3153 240.187 90.4466 240.206 87.5844 240.206 84.7156 240.206 84.7156 240.219 84.7156 240.226 84.7156Z" fill="#19416A" fill-rule="nonzero" fill-opacity="1" transform="matrix(1.00661 0 0 1 124 306.048)"/><path d="M337.067 17.6548C337.067 20.6471 337.048 23.6395 337.08 26.6318 337.093 27.3994 336.781 27.7246 336.072 27.8678 335.35 28.0174 334.667 27.9133 333.977 27.7181 333.431 27.562 333.353 27.1522 333.353 26.6513 333.359 21.805 333.353 16.9587 333.353 12.119 333.353 10.896 333.359 10.896 332.175 10.896 328.422 10.896 324.668 10.896 320.915 10.896 320.46 10.896 320.011 10.8505 319.555 10.7854 318.827 10.6813 318.345 10.3431 318.105 9.63402 317.851 8.87943 317.968 8.18989 318.443 7.5589 318.703 7.21413 319.081 7.18161 319.471 7.18161 323.836 7.18161 328.194 7.16209 332.559 7.1751 333.743 7.1751 334.933 7.07752 336.124 7.31171 336.839 7.45482 337.08 7.82561 337.074 8.52165 337.054 11.566 337.067 14.6104 337.067 17.6548L337.067 17.6548Z" fill="#19416A" fill-rule="nonzero" fill-opacity="1" transform="matrix(1.00661 0 0 1 124 306.048)"/><path d="M310.26 73.1236C311.912 72.7333 312.523 74.2685 313.402 75.3613 313.902 75.9923 314.319 76.6884 314.748 77.3779 315.015 77.8072 315.178 77.7422 315.438 77.3584 316.908 75.2052 318.398 73.065 319.874 70.9184 320.277 70.3394 320.668 69.7474 321.071 69.162 321.279 68.8562 321.572 68.6416 321.943 68.6091 322.899 68.518 323.862 68.4594 324.805 68.7261 325.163 68.8237 325.449 69.0384 325.508 69.4417 325.729 70.9509 325.69 72.356 324.707 73.7025 322.249 77.0787 319.887 80.5264 317.493 83.9545 316.446 85.4572 313.688 85.3922 312.634 83.8765 311.294 81.938 309.928 80.019 308.542 78.113 307.976 77.3324 307.528 76.5257 307.508 75.5565 307.469 73.8521 308.048 73.1301 309.655 73.1236 309.778 73.1236 309.908 73.1236 310.253 73.1236Z" fill="#FFC000" fill-rule="nonzero" fill-opacity="1" transform="matrix(1.00661 0 0 1 124 306.048)"/><path d="M619.056 59.0661C618.789 57.8171 618.978 56.5551 618.939 55.3062 618.926 54.8118 619.381 54.7663 619.817 54.7663 620.825 54.7663 621.833 54.7532 622.835 54.8053 623.336 54.8313 623.557 54.7402 623.551 54.2979 623.531 53.2441 623.531 52.1837 623.544 51.1299 623.551 50.5835 623.271 50.3883 622.62 50.3948 620.188 50.4209 617.755 50.4274 615.322 50.3948 614.561 50.3883 614.333 50.629 614.372 51.2405 614.418 52.0211 614.385 52.8017 614.385 53.5758 614.385 54.7793 614.385 54.7597 613.006 54.7858 612.004 54.8053 610.996 54.6817 609.994 54.8638L610.02 54.8833C610.014 53.6474 609.975 52.4179 610.007 51.1819 610.02 50.616 609.74 50.4078 609.116 50.4143 608.192 50.4209 607.275 50.4339 606.351 50.4013 605.668 50.3753 605.382 50.577 605.415 51.1819 605.46 52.1382 605.402 53.0944 605.434 54.0507 605.454 54.6036 605.213 54.8183 604.549 54.7923 603.691 54.7532 602.819 54.7337 601.967 54.7923 601.141 54.8508 600.926 54.5126 600.933 53.9206 600.933 53.114 600.926 52.3073 600.933 51.5007 600.939 50.4013 600.946 50.4013 599.606 50.4013 595.859 50.4013 592.118 50.3818 588.371 50.4143 587.61 50.4143 587.298 50.2647 587.35 49.5752 587.415 48.671 587.402 47.7603 587.35 46.8561 587.317 46.2446 587.604 46.069 588.28 46.0755 591.969 46.0885 595.65 46.0755 599.339 46.0755 599.638 46.0755 599.931 46.056 600.23 46.0755 600.802 46.095 601.017 45.8933 600.998 45.3989 600.946 44.3906 600.92 43.3824 600.959 42.3806 600.985 41.7886 600.692 41.6455 600.067 41.652 597.719 41.6715 595.371 41.639 593.022 41.6715 592.229 41.6845 591.897 41.4959 591.949 40.7803 592.014 39.8501 591.969 38.9199 591.956 37.9831 591.956 37.5148 591.832 37.2611 591.11 37.3391 590.147 37.4432 589.152 37.3782 588.17 37.3847 587.591 37.3847 587.33 37.1765 587.35 36.6431 587.395 35.6348 587.383 34.6265 587.35 33.6182 587.33 33.1239 587.552 32.9612 588.118 32.9417 589.419 32.9027 590.726 33.0718 592.014 32.8441 591.715 34.1191 591.969 35.4071 591.871 36.6821 591.825 37.2286 592.105 37.3587 592.704 37.3587 596.652 37.3391 600.607 37.3326 604.556 37.3522 605.258 37.3522 605.506 37.1635 605.486 36.5715 605.454 35.5633 605.349 34.5615 605.447 33.5532 605.486 33.0978 605.694 32.9417 606.221 32.9547 607.203 32.9807 608.179 32.9742 609.161 32.9547 609.688 32.9417 609.91 33.1043 609.903 33.5662 609.884 34.6005 609.929 35.6283 609.89 36.6626 609.871 37.1895 610.059 37.3587 610.69 37.3522 614.704 37.3326 618.711 37.3326 622.725 37.3522 623.323 37.3522 623.577 37.2221 623.57 36.6756 623.544 34.2102 623.544 31.7383 623.57 29.2728 623.57 28.772 623.336 28.5963 622.783 28.6093 621.924 28.6223 621.059 28.6223 620.201 28.6093 619.03 28.5963 618.952 28.5248 618.952 27.523 618.952 25.1551 618.945 22.7873 618.958 20.4259 618.958 19.9511 618.841 19.7754 618.197 19.834 617.254 19.9185 616.298 19.8925 615.348 19.8535 614.619 19.821 614.359 20.0226 614.372 20.6666 614.411 23.0345 614.372 25.4023 614.405 27.7637 614.411 28.3817 614.196 28.5963 613.442 28.5703 611.159 28.4857 608.869 28.6874 606.585 28.5573 605.538 28.4922 605.441 28.6158 605.441 29.5331 605.441 30.3137 605.441 31.0943 605.441 31.8749 605.441 32.9352 605.356 33.0003 604.146 33.0068 603.463 33.0068 602.773 32.9547 602.097 33.0198 601.147 33.1108 600.907 32.727 600.939 32.018 600.972 31.1853 600.887 30.3527 600.959 29.5265 601.03 28.7329 600.627 28.5118 599.775 28.5508 598.942 28.5898 598.109 28.5833 597.283 28.5508 596.561 28.5183 596.353 28.785 596.379 29.3574 596.418 30.3657 596.392 31.374 596.379 32.3758 596.379 32.61 596.464 32.9872 596.054 32.9807 594.707 32.9677 593.348 33.1759 592.014 32.8637 592.001 31.7057 591.969 30.5478 591.988 29.3899 592.001 28.7655 591.695 28.5313 590.973 28.5638 590.056 28.6028 589.132 28.5898 588.209 28.6158 587.617 28.6288 587.363 28.4467 587.363 27.9068 587.383 19.899 587.383 11.8913 587.383 3.88353 587.383 3.83149 587.383 3.78596 587.383 3.73391 587.448 2.51746 587.74 2.32882 589.132 2.65407 589.601 2.76466 590.063 2.80369 590.537 2.80369 599.749 2.80369 608.96 2.81019 618.177 2.79068 619.537 2.79068 620.903 2.67359 622.263 2.58252 623.278 2.51096 623.44 2.61504 623.453 3.50624 623.473 4.58608 623.499 5.66592 623.518 6.75227L623.544 6.73276C620.812 6.73926 618.08 6.75878 615.341 6.74577 614.6 6.74577 614.366 6.99946 614.372 7.60444 614.398 9.97228 614.398 12.3401 614.372 14.708 614.366 15.3455 614.645 15.5406 615.38 15.5146 616.33 15.4821 617.28 15.5536 618.23 15.5471 618.809 15.5471 619.01 15.7358 618.997 16.2237 618.965 17.2059 619.017 18.1882 618.978 19.1705 618.958 19.6583 619.127 19.847 619.719 19.8275 620.727 19.795 621.742 19.8405 622.751 19.808 623.31 19.7884 623.466 19.9771 623.453 20.4259 623.421 21.4863 623.46 22.5401 623.434 23.6004 623.421 24.0623 623.635 24.2119 624.169 24.2119 626.751 24.2119 629.34 24.2249 631.923 24.2574 632.45 24.2574 632.495 24.0102 632.489 23.6785 632.489 22.6182 632.515 21.5643 632.476 20.504 632.456 19.9771 632.664 19.7884 633.295 19.808 634.271 19.8405 635.26 19.847 636.236 19.808 636.906 19.7754 637.029 20.0226 637.01 20.517 636.977 21.5513 637.016 22.5791 636.99 23.6134 636.977 24.0818 637.192 24.2379 637.719 24.2249 638.669 24.2054 639.618 24.2249 640.568 24.2119 641.179 24.1989 641.505 24.3615 641.479 24.947 641.44 25.9553 641.459 26.9635 641.479 27.9718 641.492 28.4012 641.381 28.5833 640.796 28.5833 636.906 28.5768 633.016 28.6028 629.119 28.6158 627.916 28.6158 627.916 28.6158 627.916 29.6046 627.916 31.8944 627.935 34.1907 627.903 36.4805 627.896 37.131 628.137 37.3977 628.924 37.3587 629.815 37.3131 630.706 37.3912 631.597 37.3456 632.372 37.3001 632.567 37.5733 632.541 38.1783 632.495 39.1345 632.56 40.0908 632.508 41.047 632.482 41.5414 632.651 41.7431 633.237 41.7301 634.186 41.7106 635.136 41.7171 636.093 41.7301 636.828 41.7431 637.127 41.5219 637.114 40.8389 637.055 38.497 637.107 36.1552 637.055 33.8134 637.042 33.1434 637.289 32.9157 638.077 32.9612 638.961 33.0068 639.859 32.9482 640.75 32.9807 641.388 33.0068 641.596 32.7791 641.576 32.2717 641.55 31.3415 641.609 30.4047 641.55 29.4745 641.505 28.785 641.882 28.5833 642.604 28.5898 644.952 28.6223 647.301 28.6484 649.643 28.6744 649.942 28.6744 650.241 28.7329 650.495 28.5508 650.514 29.8063 650.534 31.0617 650.547 32.3237 650.547 32.6685 650.521 32.9807 651.113 32.9742 652.238 32.9547 653.37 32.9612 654.495 32.9677 654.925 32.9677 655.081 32.7791 655.081 32.4538 655.074 31.348 655.061 30.2421 655.042 29.1362 655.042 28.811 654.886 28.6223 654.456 28.6158 653.123 28.6158 651.789 28.5963 650.456 28.5833 650.722 28.0564 650.599 27.497 650.605 26.9505 650.625 21.9676 650.605 16.9783 650.638 11.9954 650.638 11.3058 650.326 11.1107 649.591 11.1237 648.673 11.1432 647.75 11.1042 646.826 11.1237 646.266 11.1367 646.006 10.9806 646.026 10.4732 646.052 9.46489 646.045 8.4566 646.026 7.45482 646.019 7.01247 646.227 6.81082 646.767 6.82383 647.75 6.83684 648.732 6.80431 649.708 6.82383 650.313 6.83684 650.586 6.64168 650.592 6.12778 650.605 5.19756 650.677 4.26733 650.651 3.3371 650.631 2.64757 651.048 2.4394 651.698 2.62155 652.518 2.84922 653.337 2.81019 654.17 2.81019 659.875 2.81019 665.58 2.82971 671.285 2.80369 673.093 2.79718 674.902 2.69961 676.704 2.60203 677.406 2.563 677.666 2.77116 677.666 3.36313 677.653 13.0297 677.653 22.7027 677.666 32.3693 677.666 32.8506 677.517 33.0523 676.918 33.0263 675.969 32.9938 675.019 32.9872 674.069 33.0263 673.38 33.0523 673.1 32.8767 673.132 32.2587 673.184 31.3285 673.106 30.3917 673.158 29.468 673.197 28.8045 672.885 28.5703 672.131 28.5768 669.398 28.6028 666.666 28.6158 663.934 28.6158 662.776 28.6158 661.618 28.5833 660.461 28.5703 659.823 28.5703 659.504 28.772 659.511 29.3834 659.543 32.0245 659.53 34.6721 659.537 37.3131 656.928 37.4497 654.32 37.3587 651.705 37.3912 650.885 37.4042 650.534 37.144 650.586 36.4089 650.651 35.5047 650.566 34.594 650.618 33.6898 650.651 33.0653 650.313 32.8832 649.662 32.9092 648.686 32.9482 647.704 33.0133 646.728 33.0068 646.136 33.0068 646.052 33.2149 646.058 33.6443 646.078 34.6005 646.013 35.5568 646.032 36.5065 646.045 37.1375 645.72 37.3391 645.011 37.3066 644.094 37.2676 643.17 37.3131 642.253 37.2741 641.674 37.2481 641.446 37.4107 641.459 37.9116 641.485 38.9199 641.44 39.9282 641.479 40.9299 641.505 41.5024 641.245 41.6845 640.594 41.6585 639.618 41.6195 638.636 41.6585 637.654 41.6325 637.153 41.6195 636.971 41.7626 636.984 42.1984 637.01 43.2523 637.023 44.3126 636.984 45.3729 636.964 45.9454 637.237 46.121 637.875 46.1145 640.34 46.1015 642.806 46.095 645.271 46.1145 645.857 46.1145 646.058 45.9389 646.045 45.4575 646.019 44.4232 646.045 43.3954 646.026 42.3611 646.013 41.9187 646.175 41.7106 646.735 41.7236 647.776 41.7496 648.816 41.7626 649.851 41.7366 650.423 41.7236 650.566 41.9252 650.553 42.3611 650.527 43.3954 650.566 44.4232 650.534 45.4575 650.521 45.9389 650.709 46.134 651.301 46.121 652.459 46.095 653.617 46.108 654.775 46.108 657.598 46.108 660.422 46.108 663.245 46.108 663.615 46.108 664.051 46.2056 664.084 45.6852 664.168 44.5012 664.194 43.3238 664.11 42.1399 664.084 41.7561 663.921 41.5674 663.381 41.6065 662.406 41.6715 661.423 41.626 660.448 41.665 659.784 41.691 659.576 41.4634 659.576 40.9104 659.576 39.707 659.693 38.497 659.504 37.2936 661.065 37.4172 662.627 37.3587 664.188 37.3326L664.162 37.3131C664.142 38.5946 664.129 39.8826 664.097 41.1641 664.09 41.5349 664.312 41.6585 664.689 41.6715 665.339 41.691 665.996 41.6975 666.647 41.7171 667.375 41.7431 668.117 41.652 668.794 42.0488 669.073 42.218 669.548 42.218 669.828 42.0683 670.628 41.652 671.487 41.7301 672.339 41.7496 672.918 41.7626 673.145 41.574 673.139 41.0926 673.119 40.0583 673.158 39.024 673.119 37.9962 673.1 37.4888 673.315 37.3391 673.887 37.3587 674.895 37.3912 675.91 37.3847 676.918 37.3587 677.426 37.3456 677.666 37.4432 677.66 37.9376 677.634 40.4291 677.64 42.927 677.653 45.4184 677.653 45.8738 677.452 46.056 676.918 46.0429 675.969 46.0234 675.012 46.069 674.063 46.0299 673.315 46.0039 672.976 46.1795 673.028 46.8756 673.093 47.8058 673.015 48.7425 673.048 49.6728 673.067 50.2192 672.866 50.4534 672.183 50.4274 671.266 50.3883 670.342 50.4404 669.418 50.4078 668.742 50.3818 668.533 50.6225 668.553 51.1624 668.585 52.1447 668.54 53.127 668.572 54.1092 668.592 54.6361 668.351 54.8118 667.733 54.8053 666.549 54.7858 665.359 54.8248 664.168 54.8378 663.85 53.6409 664.272 52.4374 664.155 51.234 664.097 50.6615 663.908 50.4143 663.219 50.4209 660.727 50.4339 658.229 50.4274 655.738 50.4209 655.211 50.4209 654.977 50.564 654.996 51.0323 655.022 51.7869 654.996 52.5415 654.996 53.2961 654.996 54.2675 655.569 54.7576 656.72 54.7663 659.212 54.7858 661.696 54.8118 664.188 54.8313 663.967 55.5729 664.103 56.334 664.09 57.0821 664.064 58.9425 664.123 60.8095 664.064 62.6699 664.038 63.392 664.331 63.5871 665.131 63.5416 665.931 63.4896 666.738 63.5546 667.538 63.5416 668.267 63.5286 668.618 63.7433 668.579 64.4263 668.52 65.4086 668.592 66.3908 668.553 67.3731 668.533 67.8219 668.715 67.9325 669.216 67.9195 670.283 67.8935 671.357 67.887 672.423 67.926 673.002 67.9455 673.145 67.7374 673.132 67.308 673.113 66.3258 673.139 65.3435 673.119 64.3612 673.106 63.8669 673.276 63.6132 673.926 63.6262 674.934 63.6522 675.943 63.6132 676.951 63.6066 677.458 63.6066 677.679 63.7758 677.679 64.2441 677.653 66.7096 677.66 69.1815 677.666 71.6469 677.666 72.0632 677.51 72.2259 676.996 72.2259 674.414 72.2129 671.825 72.2194 669.242 72.2389 668.631 72.2389 668.488 71.9982 668.494 71.5428 668.514 70.5346 668.475 69.5263 668.514 68.518 668.533 68.0236 668.325 67.8349 667.746 67.8545 666.764 67.8805 665.782 67.8805 664.806 67.8675 664.26 67.8545 664.084 68.0496 664.09 68.4985 664.103 71.042 664.11 73.5854 664.09 76.1289 664.09 76.6233 664.331 76.7144 664.838 76.7014 665.73 76.6753 666.621 76.7274 667.512 76.6819 668.306 76.6363 668.644 76.8185 668.585 77.5535 668.507 78.4577 668.605 79.3685 668.553 80.2727 668.52 80.8906 668.839 81.0598 669.503 81.0598 671.909 81.0403 674.316 81.0793 676.723 81.0272 677.549 81.0077 677.718 81.2549 677.706 81.8859 677.666 84.2538 677.666 86.6216 677.686 88.9895 677.686 89.5489 677.549 89.8286 676.795 89.7831 675.878 89.731 674.954 89.7506 674.03 89.7831 673.386 89.8026 673.119 89.6009 673.139 89.035 673.171 88.0527 673.119 87.0705 673.139 86.0882 673.152 85.5743 672.931 85.3661 672.306 85.3661 669.808 85.3856 667.31 85.3856 664.819 85.3661 664.194 85.3661 664.077 85.5873 664.09 86.0427 664.116 87.0509 664.077 88.0592 664.103 89.0675 664.116 89.5684 663.921 89.8091 663.284 89.7896 662.367 89.7636 661.443 89.7636 660.519 89.7896 659.803 89.8156 659.582 89.5424 659.602 88.9764 659.628 88.0462 659.556 87.1095 659.602 86.1793 659.628 85.5418 659.329 85.3531 658.607 85.3596 656.232 85.3856 653.851 85.3596 651.477 85.3856 650.826 85.3922 650.573 85.21 650.592 84.6506 650.631 83.6683 650.592 82.686 650.612 81.7038 650.618 81.1443 650.436 80.8971 649.669 80.9687 648.699 81.0598 647.711 80.9882 646.728 81.0077 646.169 81.0207 646.019 80.7866 646.032 80.3507 646.052 79.3424 646.019 78.3341 646.045 77.3259 646.058 76.8055 645.818 76.6038 645.2 76.6168 644.25 76.6428 643.3 76.5843 642.35 76.6168 641.713 76.6363 641.55 76.4282 641.557 75.9143 641.583 73.5464 641.537 71.1786 641.583 68.8107 641.596 68.0691 641.297 67.8024 640.438 67.887 639.312 67.9976 638.181 67.8675 637.055 67.861L637.081 67.8805C637.081 66.7746 637.14 65.6623 637.068 64.5564 637.023 63.8083 637.361 63.5871 638.187 63.6132 639.046 63.6392 639.911 63.5611 640.77 63.5676 641.329 63.5676 641.583 63.392 641.576 62.9041 641.557 61.8698 641.557 60.842 641.57 59.8077 641.57 59.3458 641.323 59.2027 640.802 59.2092 638.278 59.2222 635.748 59.2287 633.224 59.2092 632.606 59.2092 632.495 59.4109 632.515 59.8857 632.547 60.8875 632.482 61.8958 632.463 62.9041 632.463 63.2424 632.365 63.4961 631.877 63.5026 630.895 63.5091 629.919 63.5416 628.937 63.5416 628.299 63.5416 627.981 63.3204 628.02 62.7089 628.078 61.8308 627.994 60.9461 628.046 60.0679 628.085 59.4174 627.851 59.1832 627.044 59.2027 624.761 59.2482 622.471 59.2222 620.188 59.2157 619.804 59.2157 619.414 59.2547 619.049 59.0986L619.069 59.1181ZM655.016 15.4951C655.016 18.1622 655.042 20.8358 654.996 23.5028 654.983 24.1468 655.237 24.2249 655.913 24.2184 661.228 24.1989 666.549 24.2054 671.864 24.2184 673.152 24.2184 673.145 24.2444 673.145 23.1516 673.145 18.0646 673.145 12.9776 673.139 7.89716 673.139 6.77829 673.093 6.73926 671.799 6.73926 666.51 6.73926 661.222 6.75227 655.933 6.73276 655.165 6.73276 654.996 6.96043 655.003 7.57191 655.035 10.213 655.016 12.8605 655.016 15.5016ZM610.001 15.5211C610.001 12.9776 610.001 10.4341 610.001 7.89066 610.001 6.74577 610.001 6.73926 608.68 6.73926 603.391 6.73926 598.103 6.73926 592.814 6.72625 592.06 6.72625 591.852 6.96694 591.858 7.57191 591.878 12.8085 591.884 18.0451 591.858 23.2817 591.858 23.9972 592.073 24.2249 592.951 24.2184 598.331 24.1859 603.704 24.1924 609.083 24.2184 609.786 24.2184 610.027 24.0363 610.02 23.4443 609.994 20.8032 610.007 18.1557 610.007 15.5146ZM643.781 54.7793C645.831 54.7793 647.88 54.7597 649.929 54.7923 650.534 54.7988 650.631 54.5711 650.625 54.1548 650.612 53.2701 650.625 52.3919 650.625 51.5072 650.618 50.4143 650.612 50.4013 649.337 50.4013 645.59 50.3948 641.843 50.3688 638.103 50.4078 637.192 50.4209 636.997 50.1281 637.036 49.4516 637.088 48.5474 637.036 47.6367 637.075 46.7325 637.094 46.1795 636.854 45.9974 636.184 46.0104 633.744 46.0494 631.311 46.0234 628.872 46.0494 628.215 46.056 627.981 45.8608 628.013 45.2949 628.059 44.3646 627.994 43.4279 628.033 42.4977 628.059 41.8862 627.812 41.6325 627.063 41.639 624.624 41.665 622.191 41.665 619.752 41.639 619.101 41.639 618.945 41.8537 618.965 42.3611 619.004 43.3173 619.023 44.2801 618.965 45.2298 618.913 45.9324 619.27 46.108 620.005 46.0885 620.897 46.0625 621.788 46.1145 622.679 46.0885 623.258 46.069 623.466 46.2381 623.453 46.739 623.421 47.7212 623.479 48.7035 623.434 49.6858 623.408 50.2777 623.642 50.5054 624.344 50.4794 625.236 50.4469 626.127 50.5054 627.018 50.4664 627.74 50.4339 627.948 50.6811 627.922 51.26 627.883 52.1902 627.935 53.127 627.916 54.0572 627.903 54.5646 628.072 54.7858 628.735 54.7467 629.744 54.6947 630.758 54.7012 631.767 54.7467 632.359 54.7728 632.554 54.6361 632.521 54.1157 632.469 53.1595 632.521 52.2032 632.482 51.247 632.463 50.655 632.742 50.4339 633.432 50.4599 634.382 50.4924 635.331 50.4859 636.288 50.4664 636.834 50.4534 637.016 50.642 637.003 51.0909 636.977 52.1252 637.003 53.1595 636.99 54.1873 636.984 54.5841 637.101 54.7728 637.641 54.7663 639.69 54.7402 641.739 54.7532 643.788 54.7597ZM646.078 65.7013C646.078 65.7013 646.065 65.7013 646.058 65.7013 646.058 67.6918 646.071 69.6824 646.045 71.6664 646.045 72.0893 646.182 72.2649 646.689 72.2649 650.761 72.2584 654.834 72.2584 658.906 72.2649 659.4 72.2649 659.595 72.0763 659.595 71.6729 659.595 67.6918 659.595 63.7172 659.595 59.7361 659.595 59.3393 659.459 59.1702 658.925 59.1507 654.886 59.0076 650.846 59.0466 646.813 59.1572 646.227 59.1767 646.058 59.3068 646.065 59.8077 646.097 61.7722 646.078 63.7368 646.078 65.7013ZM657.858 81.0077C659.641 81.0077 661.423 80.9882 663.206 81.0207 663.915 81.0338 664.181 80.7996 664.149 80.2271 664.103 79.2449 664.051 78.2626 664.058 77.2868 664.058 76.7339 663.843 76.5452 663.173 76.5518 659.218 76.5843 655.269 76.5908 651.314 76.5778 650.735 76.5778 650.514 76.7209 650.534 77.2218 650.566 78.2301 650.579 79.2383 650.534 80.2466 650.508 80.7996 650.774 80.8841 651.353 80.9232 653.52 81.0533 655.692 81.0012 657.858 81.0207ZM609.91 41.6585C609.91 41.6585 609.91 41.6585 609.91 41.6585 608.661 41.6585 607.418 41.665 606.169 41.6585 605.662 41.6585 605.402 41.7756 605.415 42.257 605.441 43.3108 605.441 44.3711 605.415 45.425 605.408 45.8608 605.59 46.082 606.13 46.082 608.654 46.0755 611.172 46.069 613.695 46.0755 614.307 46.0755 614.509 45.8348 614.483 45.3274 614.437 44.3451 614.444 43.3629 614.476 42.3871 614.496 41.8667 614.255 41.6585 613.65 41.665 612.401 41.678 611.159 41.665 609.91 41.665Z" fill="#19416A" fill-rule="nonzero" fill-opacity="1" transform="matrix(1.00661 0 0 1 124 306.048)"/><path d="M619.03 59.0531C619.01 61.5966 618.991 64.1401 618.971 66.6835 618.965 67.8219 618.971 67.8219 617.638 67.8284 616.805 67.8284 615.972 67.8545 615.14 67.8415 614.502 67.8349 614.353 68.1017 614.353 68.596 614.366 73.9367 614.359 79.2774 614.34 84.618 614.34 85.21 614.619 85.4247 615.296 85.4182 617.677 85.3987 620.051 85.4312 622.432 85.3922 623.18 85.3791 623.512 85.5223 623.46 86.2183 623.388 87.1485 623.421 88.0787 623.453 89.0155 623.473 89.5229 623.29 89.7245 622.646 89.7245 611.172 89.7115 599.697 89.7115 588.228 89.718 587.675 89.718 587.343 89.64 587.343 89.061 587.356 80.9232 587.35 72.7918 587.343 64.654 587.343 63.9037 587.784 63.5264 588.664 63.5221 589.497 63.5221 590.329 63.5026 591.162 63.5351 591.676 63.5546 591.956 63.4375 591.949 62.9626 591.936 61.8828 591.949 60.7965 591.936 59.7101 591.936 59.2547 591.747 59.0726 591.103 59.1312 590.102 59.2287 589.087 59.1572 588.079 59.1767 587.558 59.1897 587.317 59.0401 587.33 58.5652 587.356 57.5049 587.356 56.4511 587.33 55.3907 587.317 54.9744 587.506 54.7532 587.974 54.7467 589.041 54.7337 590.115 54.7402 591.181 54.7597 591.695 54.7663 591.878 55.0199 591.864 55.4558 591.838 56.4641 591.884 57.4724 591.845 58.4806 591.825 58.9815 592.034 59.1312 592.606 59.1246 595.013 59.1051 597.42 59.1507 599.827 59.0986 600.724 59.0791 600.978 59.3718 600.939 60.0679 600.881 60.9981 600.926 61.9283 600.874 62.8586 600.848 63.353 601.017 63.5156 601.622 63.5156 605.577 63.4961 609.526 63.4896 613.481 63.5156 614.287 63.5156 614.509 63.2619 614.476 62.6244 614.424 61.6681 614.476 60.7119 614.444 59.7556 614.424 59.2613 614.632 59.0921 615.211 59.0986 616.486 59.1116 617.761 59.0726 619.043 59.0596 619.043 59.0596 619.023 59.0401 619.023 59.0401ZM610.001 76.6688C610.001 74.0993 610.001 71.5298 610.001 68.9668 610.001 67.861 610.001 67.848 608.654 67.848 603.456 67.8415 598.259 67.848 593.055 67.8415 591.897 67.8415 591.864 67.8415 591.864 68.8497 591.864 73.9887 591.864 79.1213 591.864 84.2603 591.864 85.3856 591.884 85.4117 593.198 85.4117 598.428 85.4117 603.658 85.3987 608.882 85.4182 609.734 85.4182 610.02 85.1905 610.007 84.4619 609.968 81.8664 609.988 79.2774 609.988 76.6819Z" fill="#19416A" fill-rule="nonzero" fill-opacity="1" transform="matrix(1.00661 0 0 1 124 306.048)"/><path d="M632.599 72.2064C632.307 72.9349 632.599 73.6765 632.534 74.4116 632.469 75.1467 632.619 75.9012 632.352 76.6298L632.378 76.6103C631.077 76.5908 629.77 76.5778 628.469 76.5518 627.968 76.5452 627.896 76.7989 627.903 77.1437 627.909 78.178 627.89 79.2058 627.916 80.2401 627.929 80.754 627.727 80.9557 627.096 80.9492 624.663 80.9297 622.224 80.9297 619.791 80.9492 619.199 80.9492 618.913 80.7931 618.926 80.2596 618.945 79.2514 618.945 78.2496 618.913 77.2413 618.9 76.7664 619.16 76.6298 619.667 76.6363 620.649 76.6493 621.632 76.6038 622.607 76.6558 623.375 76.6949 623.583 76.4412 623.551 75.8297 623.499 74.8995 623.492 73.9692 623.551 73.039 623.59 72.3885 623.251 72.1868 622.568 72.1934 621.651 72.1999 620.727 72.1673 619.81 72.1934 619.218 72.2129 618.919 72.0437 618.932 71.5103 618.965 70.528 618.991 69.5458 618.984 68.57 618.984 67.9911 619.29 67.848 619.921 67.874 620.838 67.913 621.762 67.861 622.679 67.8935 623.29 67.9195 623.544 67.7439 623.531 67.2105 623.505 66.2282 623.557 65.2459 623.531 64.2702 623.518 63.7823 623.707 63.5871 624.286 63.5871 625.144 63.5871 626.01 63.5741 626.862 63.4961 627.675 63.4245 627.942 63.6587 627.929 64.3612 627.883 66.651 627.909 68.9408 627.916 71.2306 627.916 72.2584 627.916 72.2584 629.165 72.2584 630.322 72.2584 631.474 72.2389 632.632 72.2259 632.632 72.2259 632.606 72.2064 632.606 72.2064Z" fill="#19416A" fill-rule="nonzero" fill-opacity="1" transform="matrix(1.00661 0 0 1 124 306.048)"/><path d="M634.72 15.4821C632.788 15.4821 630.856 15.4626 628.93 15.4951 628.26 15.5081 627.961 15.378 628.007 14.747 628.072 13.8168 628.065 12.8801 628.007 11.9563 627.961 11.2538 628.384 11.0456 629.073 11.0912 631.415 11.2408 633.764 11.1107 636.112 11.1627 636.782 11.1757 637.101 11.0196 637.075 10.4016 637.036 9.39333 637.062 8.39155 637.075 7.38326 637.075 6.9149 636.867 6.70674 636.275 6.73276 635.299 6.77829 634.317 6.74577 633.334 6.77179 632.742 6.7848 632.456 6.60265 632.489 6.06924 632.547 5.08697 632.586 4.11121 632.606 3.12894 632.612 2.70611 632.827 2.563 633.321 2.57601 634.33 2.60203 635.325 2.73213 636.34 2.60854 636.873 2.54349 637.016 2.90126 637.01 3.31108 636.997 4.18927 637.062 5.07396 636.99 5.95215 636.925 6.69372 637.296 6.86286 638.077 6.83033 638.968 6.7913 639.859 6.83684 640.75 6.82383 641.29 6.81082 641.492 7.00597 641.492 7.45482 641.492 9.92024 641.485 12.3857 641.505 14.8576 641.505 15.417 641.186 15.5211 640.62 15.5211 638.662 15.5081 636.698 15.5211 634.739 15.5211L634.739 15.5081Z" fill="#19416A" fill-rule="nonzero" fill-opacity="1" transform="matrix(1.00661 0 0 1 124 306.048)"/><path d="M641.42 89.705C640.23 89.705 639.046 89.6855 637.855 89.7115 637.276 89.7245 637.055 89.5489 637.062 89.061 637.088 88.0267 637.081 86.9989 637.062 85.9646 637.055 85.5353 637.263 85.3987 637.751 85.3987 640.217 85.4117 642.682 85.4117 645.148 85.3922 645.779 85.3922 645.993 85.6133 645.98 86.1077 645.954 87.142 645.928 88.1698 645.928 89.2041 645.928 89.6855 645.57 89.705 645.154 89.6985 643.905 89.6985 642.663 89.6985 641.414 89.6985Z" fill="#19416A" fill-rule="nonzero" fill-opacity="1" transform="matrix(1.00661 0 0 1 124 306.048)"/><path d="M677.666 57.0951C677.543 57.6805 678.044 58.5522 677.458 59.0206 676.925 59.4499 675.923 59.1637 675.129 59.1637 672.801 59.1637 673.171 59.4239 673.139 57.5049 673.126 56.8023 673.158 56.0933 673.126 55.3907 673.106 54.9289 673.354 54.7402 673.861 54.7402 674.902 54.7402 675.943 54.7467 676.983 54.7402 677.523 54.7402 677.706 54.9614 677.679 55.4037 677.647 55.9307 677.673 56.4641 677.673 57.0951Z" fill="#19416A" fill-rule="nonzero" fill-opacity="1" transform="matrix(1.00661 0 0 1 124 306.048)"/><path d="M664.181 37.3261C663.98 36.1032 664.149 34.8672 664.058 33.6443 664.025 33.1824 664.207 32.9417 664.812 32.9547 665.821 32.9807 666.829 32.9742 667.831 32.9547 668.358 32.9417 668.579 33.1108 668.572 33.5727 668.553 34.6265 668.553 35.6803 668.585 36.7342 668.598 37.2351 668.345 37.3977 667.792 37.3977 666.582 37.3847 665.365 37.4432 664.162 37.3066 664.162 37.3066 664.188 37.3261 664.188 37.3261Z" fill="#19416A" fill-rule="nonzero" fill-opacity="1" transform="matrix(1.00661 0 0 1 124 306.048)"/><path d="M632.352 76.6363C633.66 76.6363 634.967 76.6428 636.268 76.6298 636.789 76.6233 637.01 76.7664 636.99 77.2413 636.951 78.2691 636.964 79.3034 636.99 80.3377 637.003 80.7866 636.802 80.9882 636.275 80.9882 635.234 80.9817 634.193 80.9752 633.159 80.9882 632.606 80.9882 632.476 80.741 632.469 80.3182 632.443 79.0887 632.593 77.8528 632.385 76.6298 632.385 76.6298 632.352 76.6493 632.352 76.6493Z" fill="#19416A" fill-rule="nonzero" fill-opacity="1" transform="matrix(1.00661 0 0 1 124 306.048)"/><path d="M609.981 54.8573C609.747 56.0022 609.897 57.1536 609.916 58.305 609.929 59.0076 609.662 59.2352 608.856 59.1832 608.004 59.1312 607.138 59.1572 606.28 59.1767 605.727 59.1897 605.454 59.0271 605.467 58.5327 605.486 57.4789 605.486 56.425 605.467 55.3712 605.46 54.9224 605.675 54.7272 606.202 54.7402 607.47 54.7728 608.752 54.6557 610.007 54.8833 610.007 54.8833 609.981 54.8638 609.981 54.8638Z" fill="#19416A" fill-rule="nonzero" fill-opacity="1" transform="matrix(1.00661 0 0 1 124 306.048)"/><path d="M637.042 67.8089C637.023 69.0124 636.984 70.2158 636.99 71.4192 636.99 71.9527 636.815 72.1999 636.132 72.1803 634.954 72.1543 633.77 72.1934 632.593 72.2064 632.593 72.2064 632.619 72.2259 632.619 72.2259 632.294 70.9574 632.508 69.6759 632.508 68.4009 632.508 67.965 632.911 67.926 633.334 67.913 634.577 67.8805 635.819 67.9976 637.055 67.8219 637.055 67.8219 637.029 67.8024 637.029 67.8024Z" fill="#19416A" fill-rule="nonzero" fill-opacity="1" transform="matrix(1.00661 0 0 1 124 306.048)"/><path d="M623.499 6.75227C624.683 6.77179 625.873 6.81732 627.057 6.81082 627.668 6.81082 627.916 7.01247 627.903 7.52637 627.883 8.50864 627.883 9.49091 627.922 10.4732 627.942 11.0131 627.694 11.1562 627.083 11.1367 626.107 11.0977 625.118 11.1107 624.143 11.1692 623.622 11.2017 623.538 11.0326 623.538 10.6618 623.538 9.3543 623.531 8.04678 623.525 6.73276 623.525 6.73276 623.499 6.75227 623.499 6.75227Z" fill="#19416A" fill-rule="nonzero" fill-opacity="1" transform="matrix(1.00661 0 0 1 124 306.048)"/><path d="M645.961 17.7198C645.965 19.1466 645.133 19.8621 643.463 19.8665 642.192 19.8665 641.557 19.3179 641.557 18.2207 641.557 17.5442 641.563 16.8677 641.537 16.1911 641.524 15.7878 641.713 15.5601 642.194 15.5601 643.287 15.5601 644.38 15.5601 645.479 15.5667 645.883 15.5667 645.961 15.7878 645.961 16.0675 645.961 16.6205 645.961 17.1734 645.961 17.7263Z" fill="#19416A" fill-rule="nonzero" fill-opacity="1" transform="matrix(1.00661 0 0 1 124 306.048)"/><path d="M628.013 87.4998C628.013 87.4478 628.013 87.4022 628.013 87.3502 628.013 85.3791 628.013 85.3531 630.388 85.4052 632.58 85.4507 632.398 84.9953 632.411 87.1355 632.411 87.812 632.372 88.4886 632.378 89.1716 632.378 89.5619 632.189 89.7115 631.741 89.7115 630.706 89.705 629.665 89.7115 628.631 89.7115 628.176 89.7115 627.994 89.5359 628.007 89.1586 628.02 88.6057 628.007 88.0527 628.007 87.4998L628.007 87.4998Z" fill="#19416A" fill-rule="nonzero" fill-opacity="1" transform="matrix(1.00661 0 0 1 124 306.048)"/><path d="M668.566 15.5081C668.566 16.7181 668.546 17.9215 668.579 19.1314 668.592 19.6844 668.371 19.886 667.701 19.8795 665.3 19.8535 662.893 19.8535 660.493 19.8795 659.797 19.8795 659.563 19.6714 659.576 19.0794 659.602 16.692 659.602 14.3047 659.576 11.9173 659.569 11.3384 659.843 11.1757 660.467 11.1757 662.9 11.1887 665.333 11.1952 667.766 11.1757 668.397 11.1757 668.592 11.3839 668.579 11.8913 668.546 13.0947 668.572 14.3047 668.572 15.5146L668.572 15.5146Z" fill="#FFC000" fill-rule="nonzero" fill-opacity="1" transform="matrix(1.00661 0 0 1 124 306.048)"/><path d="M596.444 15.5341C596.444 14.3047 596.464 13.0687 596.431 11.8392 596.418 11.3514 596.594 11.1692 597.186 11.1757 599.651 11.1952 602.11 11.1887 604.575 11.1757 605.174 11.1757 605.421 11.3449 605.415 11.8783 605.395 14.3177 605.402 16.7571 605.415 19.1965 605.415 19.6779 605.206 19.873 604.627 19.8665 602.162 19.8535 599.697 19.847 597.238 19.8665 596.607 19.8665 596.418 19.6648 596.431 19.1509 596.464 17.941 596.444 16.7376 596.438 15.5276Z" fill="#FFC000" fill-rule="nonzero" fill-opacity="1" transform="matrix(1.00661 0 0 1 124 306.048)"/><path d="M614.463 30.795C614.463 30.3202 614.483 29.8388 614.463 29.3639 614.431 28.8045 614.775 28.5898 615.374 28.5833 616.291 28.5833 617.208 28.5833 618.125 28.5898 618.691 28.5898 618.991 28.8045 618.978 29.3249 618.952 30.3007 618.971 31.2829 618.978 32.2587 618.978 32.7466 618.743 33.0068 618.132 33.0003 617.156 32.9872 616.18 32.9872 615.205 33.0003 614.671 33.0068 614.457 32.8051 614.476 32.3628 614.496 31.8358 614.476 31.3089 614.476 30.782Z" fill="#19416A" fill-rule="nonzero" fill-opacity="1" transform="matrix(1.00661 0 0 1 124 306.048)"/><path d="M655.009 65.7013C655.009 66.2022 655.003 66.7096 655.009 67.2105 655.016 67.5943 654.899 67.8219 654.365 67.8284 653.357 67.848 652.349 67.9195 651.34 67.8415 650.833 67.8024 650.586 67.6658 650.599 67.204 650.625 66.1957 650.631 65.1874 650.618 64.1856 650.618 63.7693 650.807 63.5936 651.301 63.6001 652.284 63.6066 653.259 63.6001 654.242 63.5806 654.808 63.5676 655.048 63.7693 655.016 64.2637 654.983 64.7385 655.009 65.2199 655.009 65.7013Z" fill="#19416A" fill-rule="nonzero" fill-opacity="1" transform="matrix(1.00661 0 0 1 124 306.048)"/><path d="M596.444 76.5648C596.444 75.3808 596.47 74.1969 596.431 73.013 596.412 72.4796 596.574 72.2454 597.27 72.2519 599.645 72.2779 602.025 72.2779 604.4 72.2519 605.174 72.2454 605.434 72.4991 605.428 73.1496 605.395 75.4914 605.395 77.8333 605.428 80.1751 605.434 80.7801 605.18 80.9557 604.497 80.9492 602.123 80.9232 599.742 80.9167 597.368 80.9492 596.594 80.9622 596.412 80.7085 596.438 80.11 596.483 78.9261 596.451 77.7422 596.451 76.5583Z" fill="#FFC000" fill-rule="nonzero" fill-opacity="1" transform="matrix(1.00661 0 0 1 124 306.048)"/><text fill="#00426B" fill-opacity="1" font-family="Montserrat,Montserrat_MSFontService,sans-serif" font-style="normal" font-variant="normal" font-weight="400" font-stretch="normal" font-size="30" text-anchor="start" direction="ltr" writing-mode="lr-tb" unicode-bidi="normal" text-decoration="none" transform="matrix(0.654809 0 0 0.650508 722.141 433)">Q</text><text fill="#00426B" fill-opacity="1" font-family="Montserrat,Montserrat_MSFontService,sans-serif" font-style="normal" font-variant="normal" font-weight="400" font-stretch="normal" font-size="30" text-anchor="start" direction="ltr" writing-mode="lr-tb" unicode-bidi="normal" text-decoration="none" transform="matrix(0.654809 0 0 0.650508 738.649 433)">r</text><text fill="#00426B" fill-opacity="1" font-family="Montserrat,Montserrat_MSFontService,sans-serif" font-style="normal" font-variant="normal" font-weight="400" font-stretch="normal" font-size="30" text-anchor="start" direction="ltr" writing-mode="lr-tb" unicode-bidi="normal" text-decoration="none" transform="matrix(0.654809 0 0 0.650508 746.631 433)"> </text><text fill="#00426B" fill-opacity="1" font-family="Montserrat,Montserrat_MSFontService,sans-serif" font-style="normal" font-variant="normal" font-weight="400" font-stretch="normal" font-size="30" text-anchor="start" direction="ltr" writing-mode="lr-tb" unicode-bidi="normal" text-decoration="none" transform="matrix(0.654809 0 0 0.650508 751.876 433)">C</text><text fill="#00426B" fill-opacity="1" font-family="Montserrat,Montserrat_MSFontService,sans-serif" font-style="normal" font-variant="normal" font-weight="400" font-stretch="normal" font-size="30" text-anchor="start" direction="ltr" writing-mode="lr-tb" unicode-bidi="normal" text-decoration="none" transform="matrix(0.654809 0 0 0.650508 766.269 433)">o</text><text fill="#00426B" fill-opacity="1" font-family="Montserrat,Montserrat_MSFontService,sans-serif" font-style="normal" font-variant="normal" font-weight="400" font-stretch="normal" font-size="30" text-anchor="start" direction="ltr" writing-mode="lr-tb" unicode-bidi="normal" text-decoration="none" transform="matrix(0.654809 0 0 0.650508 778.756 433)">d</text><text fill="#00426B" fill-opacity="1" font-family="Montserrat,Montserrat_MSFontService,sans-serif" font-style="normal" font-variant="normal" font-weight="400" font-stretch="normal" font-size="30" text-anchor="start" direction="ltr" writing-mode="lr-tb" unicode-bidi="normal" text-decoration="none" transform="matrix(0.654809 0 0 0.650508 792.298 433)">e</text></g></g></g></g></g></svg>